<svg width="62" height="70" viewBox="0 0 62 70" fill="none" xmlns="http://www.w3.org/2000/svg">
<path d="M7.58889 15.3872C7.47495 11.6834 10.0274 8.26819 13.4778 8.26819H48.8336C52.2841 8.26819 54.8365 11.6834 54.7225 15.3872C54.6129 18.9448 54.7552 23.5535 55.7812 27.3111C56.8105 31.0807 58.5461 33.4628 61.3889 33.7693V37.2405C58.5461 37.547 56.8105 39.9291 55.7812 43.6986C54.7552 47.4562 54.6129 52.0649 54.7225 55.6225C54.8365 59.3263 52.2841 62.741 48.8336 62.741H13.4778C10.0274 62.741 7.47495 59.3258 7.58889 55.6225C7.69851 52.0649 7.5562 47.4562 6.52976 43.6986C5.50091 39.9296 3.76053 37.547 0.91774 37.2405V33.7693C3.76053 33.4633 5.50091 31.0807 6.52976 27.3111C7.5562 23.5535 7.69803 18.9448 7.58889 15.3872V15.3872Z" fill="#333A72"/>
<g filter="url(#filter0_d_18_312)">
<path d="M32.6489 50.1827C38.2349 50.1827 41.6011 47.0908 41.6011 41.9911C41.6011 38.1363 39.1993 35.3455 35.6329 34.9037V34.7431C38.2531 34.2612 40.3092 31.5106 40.3092 28.4388C40.3092 24.0619 37.2524 21.2108 32.5943 21.2108H22.1136V50.1827H32.6489ZM26.1894 24.885H31.6118C34.5595 24.885 36.2334 26.3707 36.2334 29.0611C36.2334 31.9323 34.2865 33.5384 30.7566 33.5384H26.1894V24.885ZM26.1894 46.5085V36.9716H31.5753C35.4328 36.9716 37.4343 38.5778 37.4343 41.7099C37.4343 44.842 35.4874 46.5085 31.8119 46.5085H26.1894Z" fill="url(#paint0_linear_18_312)"/>
<path d="M32.6489 50.1827C38.2349 50.1827 41.6011 47.0908 41.6011 41.9911C41.6011 38.1363 39.1993 35.3455 35.6329 34.9037V34.7431C38.2531 34.2612 40.3092 31.5106 40.3092 28.4388C40.3092 24.0619 37.2524 21.2108 32.5943 21.2108H22.1136V50.1827H32.6489ZM26.1894 24.885H31.6118C34.5595 24.885 36.2334 26.3707 36.2334 29.0611C36.2334 31.9323 34.2865 33.5384 30.7566 33.5384H26.1894V24.885ZM26.1894 46.5085V36.9716H31.5753C35.4328 36.9716 37.4343 38.5778 37.4343 41.7099C37.4343 44.842 35.4874 46.5085 31.8119 46.5085H26.1894Z" stroke="white" stroke-width="0.24566"/>
</g>
<defs>
<filter id="filter0_d_18_312" x="18.0602" y="18.1401" width="27.5942" height="37.0786" filterUnits="userSpaceOnUse" color-interpolation-filters="sRGB">
<feFlood flood-opacity="0" result="BackgroundImageFix"/>
<feColorMatrix in="SourceAlpha" type="matrix" values="0 0 0 0 0 0 0 0 0 0 0 0 0 0 0 0 0 0 127 0" result="hardAlpha"/>
<feOffset dy="0.98264"/>
<feGaussianBlur stdDeviation="1.96528"/>
<feColorMatrix type="matrix" values="0 0 0 0 0 0 0 0 0 0 0 0 0 0 0 0 0 0 0.15 0"/>
<feBlend mode="normal" in2="BackgroundImageFix" result="effect1_dropShadow_18_312"/>
<feBlend mode="normal" in="SourceGraphic" in2="effect1_dropShadow_18_312" result="shape"/>
</filter>
<linearGradient id="paint0_linear_18_312" x1="23.9575" y1="23.1174" x2="38.0366" y2="44.1818" gradientUnits="userSpaceOnUse">
<stop stop-color="white"/>
<stop offset="1" stop-color="#F1E5FC"/>
</linearGradient>
</defs>
</svg>
