<svg width="62" height="71" viewBox="0 0 62 71" fill="none" xmlns="http://www.w3.org/2000/svg">
<path d="M52.7115 28.0217H50.4038L49.8269 31.2826H48L48.5769 28.0217H46.2212L45.6442 31.2826H43.0962V34H45.2115L44.7788 36.1739H43.0962V38.8913H44.2981L43.7212 42.1522H46.0288L46.6058 38.8913H48.4327L47.8558 42.1522H50.2115L50.7885 38.8913H53.1923V36.1739H51.2212L51.6538 34H53.1923V31.2826H52.1346L52.7115 28.0217ZM48.9135 36.1739H47.0865L47.5192 34H49.3462L48.9135 36.1739ZM56.3173 18.4022C56.0288 17.8043 55.6442 17.2609 55.2115 16.9891L32.0865 1.88043C31.7019 1.6087 31.1731 1.5 30.5962 1.5C30.0192 1.5 29.4904 1.66304 29.1058 1.88043L5.78846 16.9891C4.97115 17.5326 4.15385 18.8913 4.15385 19.9239V50.1957C4.15385 50.7935 4.49039 51.4457 4.82692 52.0435L4.875 52.0978C5.11539 52.5326 5.5 52.913 5.83654 53.1304L29.0577 68.2935C29.4423 68.5652 30.0192 68.6739 30.5962 68.6739C31.1731 68.6739 31.7019 68.5109 32.0865 68.2935L54.9231 53.1304C55.7404 52.587 56.0769 51.2283 56.0769 50.1957V19.9239C56.0769 19.4891 56.2692 18.9457 56.0769 18.5109L56.3173 18.4022ZM54.2981 19.5435C54.2981 19.7065 54.1538 19.8152 54.1538 19.9239V50.1957C54.1538 50.6304 54.0577 51.1196 53.9615 51.2826L31.0769 66.3913C31.0288 66.4456 30.8365 66.5 30.5481 66.5C30.2596 66.5 30.0673 66.4456 30.0192 66.3913L6.84615 51.2826C6.84615 51.2826 6.79808 51.2283 6.75 51.2283L6.46154 50.9022C6.26923 50.5217 6.55769 50.3043 6.07692 50.25V19.9783C6.55769 19.7065 6.50962 19.0543 6.75 18.9457L29.9712 3.78261C30.0192 3.78261 30.2596 3.67391 30.5481 3.67391C30.8365 3.67391 31.0288 3.72826 31.0769 3.78261L54.1538 18.837L54.3462 19.3261C54.3942 19.3804 54.2981 19.4891 54.2981 19.5435ZM30.5962 48.4022C24.1058 48.4022 18.8173 42.4239 18.8173 35.087C18.8173 27.75 24.1058 21.7717 30.5962 21.7717C34.9712 21.7717 38.8173 24.4891 40.8365 28.5652L47.0865 24.4891C43.8173 18.0217 37.6635 13.6196 30.5962 13.6196C20.1154 13.6196 11.6058 23.2391 11.6058 35.087C11.6058 46.9348 20.1154 56.5543 30.5962 56.5543C37.6154 56.5543 43.7692 52.2065 47.0385 45.7935L40.8365 41.663C38.8173 45.6848 34.9712 48.4022 30.5962 48.4022Z" fill="#333A72"/>
</svg>
