<svg width="62" height="71" viewBox="0 0 62 71" fill="none" xmlns="http://www.w3.org/2000/svg">
<path d="M4.59616 1.13037L9.43029 62.4798L31.1216 69.3168L52.8736 62.4548L57.7115 1.13037H4.59616ZM47.6688 15.1858L46.0596 35.6233L46.0644 35.7336L46.0577 35.9874V35.9853L44.9144 50.2755L44.7885 51.545L31.1539 55.8081V55.8086L31.1433 55.819L17.5322 51.532L16.6106 39.7173H23.2851L23.7587 45.7249L31.1558 47.9912L31.1539 47.9956V47.9945L38.5784 45.6961L39.363 35.913H23.8423L23.7091 34.2592L23.4058 30.3847L23.2466 28.3043H39.9529L40.5606 20.6956H15.1154L14.9822 19.0429L14.6793 15.1673L14.5197 13.0869H47.8279L47.6688 15.1858Z" fill="#333A72"/>
</svg>
