<svg width="63" height="70" viewBox="0 0 63 70" fill="none" xmlns="http://www.w3.org/2000/svg">
<path d="M20.2572 42.9066H19.4471V37.662C19.4471 37.2479 19.4711 36.7436 19.5144 36.1485H19.4961C19.4202 36.4963 19.3505 36.7485 19.2894 36.9044L16.9327 42.9066H16.538L14.1769 36.9479C14.1106 36.7816 14.0409 36.5137 13.9702 36.1485H13.9529C13.9779 36.4615 13.9918 36.9686 13.9918 37.6724V42.9066H13.2101V35.0963H14.2798L16.3995 40.5425C16.5591 40.9523 16.6625 41.2642 16.7125 41.4773H16.7457C16.8477 41.1545 16.958 40.8351 17.0764 40.5196L19.2423 35.0963H20.2567V42.9066H20.2572ZM22.7514 42.9066H21.9635V37.3289H22.7514V42.9066ZM22.8875 35.3294C22.8875 35.4941 22.8365 35.6311 22.7351 35.7441C22.6873 35.7992 22.6301 35.8427 22.567 35.8718C22.5038 35.901 22.436 35.9152 22.3678 35.9137C22.3006 35.9149 22.2338 35.9011 22.1714 35.873C22.1089 35.8449 22.052 35.8031 22.0038 35.7501C21.9541 35.6958 21.9149 35.6303 21.889 35.5579C21.8631 35.4854 21.8509 35.4076 21.8534 35.3294C21.8534 35.1686 21.9034 35.0311 22.0038 34.9196C22.1043 34.8082 22.2269 34.7539 22.3678 34.7539C22.512 34.7539 22.6356 34.8077 22.7351 34.9196C22.8365 35.0311 22.8875 35.1686 22.8875 35.3294ZM27.675 42.6484C27.2971 42.911 26.8452 43.0408 26.3231 43.0408C25.6154 43.0408 25.0466 42.7756 24.6111 42.2452C24.1885 41.7305 23.976 41.0664 23.976 40.2523C23.976 39.3387 24.2067 38.599 24.6731 38.0365C25.1365 37.4735 25.7601 37.1925 26.5442 37.1925C26.9731 37.1925 27.3534 37.287 27.6861 37.4756V38.3925C27.3178 38.1001 26.9284 37.955 26.5106 37.955C26.0082 37.955 25.599 38.1533 25.2822 38.549C24.9519 38.9539 24.7851 39.4957 24.7851 40.1713C24.7851 40.8202 24.9375 41.3343 25.2409 41.7131C25.5452 42.0903 25.9505 42.2794 26.4611 42.2794C26.8923 42.2794 27.2966 42.1191 27.6745 41.8001V42.6484H27.675ZM31.4442 38.2338C31.3053 38.1126 31.1048 38.0539 30.8409 38.0539C30.5197 38.0539 30.25 38.2158 30.0317 38.5436C29.7836 38.9093 29.6611 39.4153 29.6611 40.0626V42.9061H28.8707V37.3289H29.6611V38.4789H29.6798C29.7957 38.0718 29.975 37.7588 30.2144 37.537C30.4271 37.3388 30.6945 37.2309 30.9702 37.2321C31.1808 37.2321 31.3365 37.2577 31.4433 37.3082L31.4442 38.2338ZM35.8452 40.1278C35.8452 39.4142 35.7029 38.8686 35.4173 38.4941C35.1409 38.1343 34.7538 37.955 34.2558 37.955C33.7649 37.955 33.3707 38.1365 33.0764 38.5001C32.7654 38.8887 32.6096 39.4376 32.6096 40.1495C32.6096 40.8169 32.7577 41.3408 33.0567 41.7142C33.3538 42.0903 33.7538 42.2789 34.2558 42.2789C34.775 42.2789 35.1726 42.0876 35.4452 41.7077C35.712 41.336 35.8452 40.8099 35.8452 40.1278ZM36.6553 40.0968C36.6553 40.9854 36.4332 41.6995 35.9909 42.2349C35.5466 42.7724 34.949 43.0408 34.1976 43.0408C33.4572 43.0408 32.8673 42.7724 32.4356 42.2349C32.012 41.7169 31.7995 41.0332 31.7995 40.1827C31.7995 39.212 32.0399 38.4642 32.5221 37.9332C32.9687 37.4408 33.5654 37.1925 34.3135 37.1925C35.049 37.1925 35.624 37.4517 36.038 37.9653C36.4481 38.4816 36.6553 39.1925 36.6553 40.0968ZM40.5716 41.4142C40.5716 41.8707 40.4212 42.249 40.1187 42.5506C39.7885 42.8773 39.3351 43.0403 38.7649 43.0403C38.2981 43.0403 37.8889 42.93 37.5413 42.7044V41.7446C37.9279 42.1001 38.3548 42.2789 38.8236 42.2789C39.449 42.2789 39.762 42.0186 39.762 41.4995C39.7646 41.3981 39.7474 41.2972 39.7116 41.2041C39.6758 41.111 39.6223 41.028 39.5548 40.961C39.4159 40.8186 39.1457 40.6479 38.7447 40.4485C38.3317 40.2441 38.037 40.0343 37.8635 39.8164C37.6548 39.5577 37.55 39.2224 37.55 38.8088C37.55 38.3457 37.7139 37.9604 38.0375 37.6539C38.362 37.3457 38.7788 37.1919 39.2904 37.1919C39.6822 37.1919 40.0336 37.2783 40.3452 37.4533V38.3523C40.0197 38.087 39.6476 37.9544 39.2255 37.9544C38.9639 37.9544 38.7538 38.0283 38.5971 38.1713C38.4389 38.318 38.3596 38.505 38.3596 38.7332C38.3596 38.9805 38.426 39.1724 38.5577 39.3099C38.675 39.4365 38.9236 39.5919 39.2986 39.7729C39.7197 39.9724 40.024 40.1794 40.2096 40.3908C40.45 40.6593 40.5716 41.0001 40.5716 41.4142ZM45.3986 40.1278C45.3986 39.4142 45.2558 38.8686 44.9697 38.4941C44.6933 38.1343 44.3058 37.955 43.8086 37.955C43.3178 37.955 42.9235 38.1365 42.6279 38.5001C42.3173 38.8887 42.162 39.4376 42.162 40.1495C42.162 40.8169 42.3106 41.3408 42.6062 41.7142C42.9072 42.0903 43.3077 42.2789 43.8086 42.2789C44.3288 42.2789 44.725 42.0876 44.9981 41.7077C45.2649 41.336 45.3986 40.8099 45.3986 40.1278ZM46.2101 40.0968C46.2101 40.9854 45.9861 41.6995 45.5428 42.2349C45.1005 42.7724 44.5029 43.0408 43.751 43.0408C43.0096 43.0408 42.4202 42.7724 41.988 42.2349C41.5644 41.7169 41.3519 41.0332 41.3519 40.1827C41.3519 39.212 41.5942 38.4642 42.074 37.9332C42.5202 37.4408 43.1178 37.1925 43.8663 37.1925C44.6024 37.1925 45.1764 37.4517 45.5894 37.9653C46.0005 38.4816 46.2101 39.1925 46.2101 40.0968ZM49.6899 35.4338C49.5292 35.3344 49.3485 35.2838 49.1654 35.287C48.6125 35.287 48.338 35.6805 48.338 36.4691V37.3289H49.4942V38.0854H48.338V42.9066H47.5471V38.0854H46.7082V37.3289H47.5471V36.4245C47.5471 35.811 47.7135 35.3289 48.0519 34.9821C48.3418 34.6805 48.6961 34.5305 49.1178 34.5305C49.362 34.5305 49.5514 34.5637 49.6894 34.6273V35.4338H49.6899ZM52.8072 42.8506C52.6207 42.9713 52.3726 43.0316 52.0654 43.0316C51.2043 43.0316 50.7736 42.4827 50.7736 41.3854V38.0865H49.9269V37.3289H50.7736V35.968L51.5649 35.6783V37.3289H52.8067V38.0865H51.5649V41.2338C51.5649 41.6077 51.6187 41.8751 51.7322 42.03C51.8461 42.1903 52.0327 42.2686 52.2961 42.2686C52.4928 42.2686 52.663 42.2093 52.8072 42.0887V42.8506ZM10.1139 64.6751C10.1139 65.1126 9.97644 65.4903 9.69711 65.8093C9.56692 65.9635 9.40994 66.0855 9.23603 66.1678C9.06212 66.2501 8.87504 66.2909 8.68653 66.2876C8.50175 66.2906 8.31848 66.2496 8.14867 66.1672C7.97885 66.0848 7.8263 65.9628 7.70096 65.8093C7.57045 65.66 7.46749 65.4828 7.39808 65.2881C7.32867 65.0934 7.29418 64.885 7.29663 64.6751C7.29663 64.2256 7.43077 63.8463 7.70096 63.5321C7.82697 63.3801 7.97979 63.2596 8.14955 63.1784C8.31931 63.0973 8.50224 63.0572 8.68653 63.061C9.08221 63.061 9.41923 63.2196 9.69711 63.5381C9.97644 63.8577 10.1139 64.237 10.1139 64.6751ZM27.7971 65.9599H25.2211L15.8711 49.637C15.6463 49.2301 15.4565 48.7997 15.3043 48.3517H15.2274C15.2942 48.7887 15.3279 49.7273 15.3279 51.1642V65.9599H13.2048V45.4816H15.9606L25.0303 61.5468C25.3913 62.1843 25.6385 62.6408 25.7635 62.9158H25.8135C25.7293 62.3273 25.6856 61.3224 25.6856 59.905V45.4816H27.7961V65.9599H27.7971ZM41.4096 65.9599H31.8082V45.4816H40.9928V47.6517H33.9303V54.4637H40.4745V56.6349H33.9298V63.7892H41.4096V65.9599ZM55.9726 47.6517H50.7543V65.9604H48.6317V47.6517H43.4034V45.4805H55.9726V47.6517Z" fill="#333A72"/>
<path fill-rule="evenodd" clip-rule="evenodd" d="M40.3404 25.5925C40.5707 24.9229 40.8317 24.2637 41.0265 23.5811C42.1265 19.724 43.2159 15.8637 44.2981 12.0001C44.7139 10.5158 45.1697 9.05442 45.988 7.77888C47.2822 5.76312 49.0851 4.70714 51.2188 4.33812C52.0592 4.19696 52.9075 4.12322 53.7572 4.11746C56.2894 4.09029 58.8226 4.10931 61.3553 4.11203C61.4899 4.11203 61.6245 4.12779 61.8154 4.14029C61.7534 4.30551 61.7197 4.42562 61.6659 4.53377C60.726 6.43268 59.8043 8.34301 58.8365 10.2229C57.1515 13.4957 55.4635 16.7675 53.7255 20.0044C52.6106 22.08 51.4015 24.0914 50.0298 25.9685C49.0178 27.3533 47.9524 28.6772 46.5942 29.6479C45.6688 30.3093 44.6803 30.6963 43.5582 30.6897C39.5784 30.6653 35.5986 30.6832 31.6188 30.6767C30.4356 30.6745 29.4226 30.1653 28.563 29.262C27.3308 27.968 26.5952 26.3207 25.9933 24.5838C24.8952 21.4126 24.2803 18.0887 23.5745 14.7936C23.2438 13.2512 22.8678 11.7207 22.5096 10.1859C22.4865 10.0865 22.4414 9.99355 22.3894 9.85062L22.112 10.1452C20.5601 11.8881 19.1933 13.8088 17.9702 15.8506C17.637 16.4071 17.525 17.1408 17.3389 17.8022C16.6543 20.2316 16.0303 22.6843 15.2889 25.0908C14.5789 27.3963 13.3058 29.23 11.3159 30.3137C10.162 30.946 8.90121 31.2898 7.61924 31.3218C5.70578 31.3696 3.79135 31.3751 1.87741 31.3946C1.41972 31.3995 1.39856 31.3571 1.5178 30.8566C2.33847 27.412 3.37837 24.0555 4.68126 20.8066C6.02453 17.455 7.60674 14.2588 9.60001 11.3397C10.9572 9.35225 12.4563 7.51855 14.3322 6.13214C15.2837 5.42942 16.2952 4.87399 17.4462 4.72779C17.6356 4.70333 17.8274 4.68812 18.0178 4.68812C22.0938 4.68594 26.1697 4.73268 30.2452 4.66692C32.4313 4.63159 34.014 5.67507 35.199 7.6642C35.9361 8.90116 36.4635 10.2517 36.9072 11.6468C37.8019 14.4609 38.3582 17.3789 38.9865 20.2762C39.3462 21.9343 39.7466 23.5811 40.1303 25.2327C40.1591 25.3566 40.2058 25.4751 40.2447 25.5957L40.3404 25.5925Z" fill="#333A72"/>
</svg>
