<svg width="62" height="70" viewBox="0 0 62 70" fill="none" xmlns="http://www.w3.org/2000/svg">
<path d="M60.3543 32.1402L33.8563 2.18694C32.3312 0.461939 29.8562 0.461939 28.3288 2.18694L22.8269 8.40759L29.8067 16.2978C31.4293 15.6788 33.2889 16.094 34.5817 17.5554C35.8812 19.0261 36.2457 21.1462 35.6846 22.9864L42.4115 30.5913C44.0389 29.957 45.9173 30.3668 47.2163 31.8386C49.0337 33.8913 49.0337 37.219 47.2163 39.2728C46.7845 39.7612 46.2717 40.1487 45.7073 40.4131C45.143 40.6774 44.5381 40.8135 43.9272 40.8135C43.3163 40.8135 42.7113 40.6774 42.147 40.4131C41.5826 40.1487 41.0698 39.7612 40.638 39.2728C39.9891 38.5389 39.5468 37.6044 39.3668 36.5869C39.1867 35.5695 39.2769 34.5145 39.626 33.5549L33.3529 26.4636L33.3519 45.1272C33.8071 45.3805 34.2226 45.7161 34.5822 46.1206C36.3986 48.1734 36.3986 51.5 34.5822 53.557C32.7654 55.6098 29.8207 55.6098 28.0058 53.557C26.1894 51.5005 26.1894 48.1739 28.0058 46.1206C28.4409 45.6279 28.9585 45.2381 29.5284 44.9739V26.1375C28.9581 25.874 28.4403 25.4839 28.0058 24.9902C26.6298 23.4359 26.2986 21.1532 27.0043 19.2424L20.1231 11.4636L1.95384 32.0016C1.22082 32.8305 0.809036 33.9546 0.809036 35.1266C0.809036 36.2987 1.22082 37.4227 1.95384 38.2516L28.4524 68.2049C29.9784 69.9299 32.4524 69.9299 33.9808 68.2049L60.3548 38.3907C61.0877 37.5616 61.4993 36.4375 61.4992 35.2654C61.4991 34.0933 61.0873 32.9692 60.3543 32.1402Z" fill="#333A72"/>
</svg>
