<svg width="61" height="61" viewBox="0 0 61 61" fill="none" xmlns="http://www.w3.org/2000/svg">
<path fill-rule="evenodd" clip-rule="evenodd" d="M30.5 0.720581C19.3041 0.720581 10.2247 9.79767 10.2247 20.9959C10.2247 29.9539 16.034 37.5541 24.0902 40.2348C25.1034 40.4225 25.4756 39.7949 25.4756 39.2592C25.4756 38.776 25.4565 37.1786 25.448 35.4849C19.8069 36.7111 18.6169 33.0925 18.6169 33.0925C17.6948 30.7488 16.3656 30.1254 16.3656 30.1254C14.5261 28.8673 16.5038 28.893 16.5038 28.893C18.5402 29.036 19.6125 30.9828 19.6125 30.9828C21.4205 34.0823 24.3557 33.1859 25.5123 32.6679C25.6948 31.3574 26.22 30.4624 26.8 29.9563C22.2965 29.444 17.5623 27.705 17.5623 19.9361C17.5623 17.7224 18.3543 15.9139 19.6515 14.4937C19.4409 13.9828 18.747 11.9203 19.8479 9.12762C19.8479 9.12762 21.5502 8.58339 25.4237 11.2069C27.0416 10.7575 28.7763 10.532 30.4991 10.5244C32.2223 10.5325 33.9579 10.7579 35.5783 11.2069C39.4479 8.58386 41.1483 9.1281 41.1483 9.1281C42.252 11.9208 41.5582 13.9828 41.3475 14.4942C42.6476 15.9134 43.4339 17.7224 43.4339 19.9365C43.4339 27.7236 38.6907 29.4382 34.1757 29.9396C34.903 30.5686 35.5511 31.8029 35.5511 33.6949C35.5511 36.4075 35.5282 38.5906 35.5282 39.2583C35.5282 39.7968 35.8933 40.4297 36.9207 40.2305C44.9727 37.5465 50.7744 29.9491 50.7744 20.994C50.7754 9.79814 41.6978 0.720581 30.5 0.720581Z" fill="#333A72"/>
<path d="M17.9045 29.8309C17.8592 29.9319 17.7005 29.9619 17.5566 29.8928C17.4088 29.8261 17.3269 29.6893 17.3745 29.5878C17.4174 29.4849 17.5766 29.4558 17.7238 29.5249C17.8716 29.5916 17.9555 29.7298 17.9049 29.8309H17.9045ZM18.7256 30.7478C18.6288 30.8369 18.4396 30.7954 18.311 30.6534C18.1785 30.5119 18.1537 30.3227 18.2519 30.2321C18.351 30.1425 18.5345 30.1845 18.6665 30.326C18.7999 30.469 18.8261 30.6563 18.7251 30.7473L18.7256 30.7478ZM19.5248 31.9144C19.4009 32.0011 19.1974 31.9201 19.072 31.7395C18.9472 31.5598 18.9472 31.344 19.0744 31.2567C19.2002 31.17 19.4004 31.2482 19.5272 31.4269C19.652 31.6104 19.652 31.8272 19.5248 31.9149V31.9144ZM20.6199 33.0429C20.5089 33.1654 20.272 33.1325 20.099 32.9652C19.9218 32.8018 19.8727 32.5697 19.9837 32.4472C20.0967 32.3247 20.3345 32.359 20.5089 32.5249C20.6852 32.6879 20.7386 32.9204 20.6199 33.0424V33.0429ZM22.1316 33.6977C22.082 33.8569 21.8542 33.9288 21.6245 33.8616C21.3948 33.7921 21.2452 33.6062 21.2909 33.4461C21.3386 33.286 21.5683 33.2111 21.7994 33.2831C22.0282 33.3517 22.1783 33.5357 22.1311 33.6977H22.1316ZM23.79 33.8192C23.7962 33.986 23.6013 34.1252 23.3602 34.128C23.1181 34.1338 22.9217 33.9984 22.9189 33.8335C22.9189 33.6648 23.1095 33.5276 23.3516 33.5238C23.5927 33.519 23.79 33.6534 23.79 33.8192ZM25.3341 33.5566C25.3627 33.7196 25.1959 33.8874 24.9562 33.9317C24.7207 33.9755 24.5034 33.8745 24.4729 33.7125C24.4443 33.5457 24.6145 33.3789 24.8494 33.335C25.0891 33.2931 25.3036 33.3913 25.3341 33.5571V33.5566Z" fill="#333A72"/>
<path d="M11.845 51.6127H6.74574C6.68254 51.6127 6.62194 51.6378 6.57725 51.6825C6.53256 51.7271 6.50746 51.7878 6.50746 51.8509V54.3443C6.50746 54.4075 6.53256 54.4681 6.57725 54.5128C6.62194 54.5575 6.68254 54.5826 6.74574 54.5826H8.73444V57.6803C8.73444 57.6803 8.2879 57.8328 7.05217 57.8328C5.5958 57.8328 3.5604 57.3009 3.5604 52.825C3.5604 48.3487 5.68015 47.7592 7.67027 47.7592C9.39257 47.7592 10.1341 48.0623 10.6069 48.2086C10.7546 48.2534 10.8928 48.1056 10.8928 47.9741L11.4613 45.5651C11.4622 45.529 11.4544 45.4933 11.4385 45.4609C11.4225 45.4285 11.399 45.4005 11.3698 45.3792C11.1778 45.242 10.0083 44.5881 7.05312 44.5881C3.64856 44.5881 0.156311 46.0359 0.156311 52.9995C0.156311 59.962 4.15467 60.9995 7.52397 60.9995C10.3138 60.9995 12.006 59.8072 12.006 59.8072C12.0756 59.769 12.0832 59.6713 12.0832 59.6261V51.8505C12.0832 51.7873 12.0581 51.7267 12.0135 51.682C11.9688 51.6373 11.9082 51.6122 11.845 51.6122V51.6127ZM37.8896 45.1829H35.0178C34.9865 45.183 34.9555 45.1893 34.9266 45.2014C34.8977 45.2136 34.8715 45.2313 34.8494 45.2535C34.8274 45.2758 34.8099 45.3022 34.7981 45.3312C34.7863 45.3602 34.7803 45.3913 34.7805 45.4226L34.7814 50.9717H30.3056V45.4226C30.3057 45.3913 30.2998 45.3603 30.288 45.3313C30.2762 45.3023 30.2588 45.2759 30.2368 45.2537C30.2148 45.2314 30.1886 45.2137 30.1598 45.2016C30.1309 45.1894 30.1 45.1831 30.0687 45.1829H27.1974C27.1661 45.183 27.1351 45.1893 27.1062 45.2014C27.0773 45.2136 27.0511 45.2313 27.029 45.2535C27.007 45.2758 26.9896 45.3022 26.9777 45.3312C26.9659 45.3602 26.9599 45.3913 26.9601 45.4226V60.4486C26.9601 60.5806 27.0668 60.6883 27.1974 60.6883H30.0687C30.1 60.6881 30.131 60.6818 30.1599 60.6696C30.1888 60.6574 30.215 60.6397 30.237 60.6174C30.259 60.595 30.2763 60.5686 30.2881 60.5396C30.2999 60.5105 30.3058 60.4795 30.3056 60.4481V54.0212H34.7814L34.7738 60.4481C34.7738 60.5806 34.8806 60.6883 35.0121 60.6883H37.8896C37.9209 60.6881 37.9519 60.6818 37.9808 60.6696C38.0096 60.6574 38.0358 60.6397 38.0578 60.6174C38.0798 60.595 38.0972 60.5686 38.109 60.5396C38.1207 60.5105 38.1267 60.4795 38.1264 60.4481V45.4221C38.1267 45.3908 38.1208 45.3598 38.1091 45.3307C38.0973 45.3017 38.0799 45.2753 38.0579 45.2531C38.0359 45.2309 38.0097 45.2132 37.9808 45.2011C37.9519 45.1891 37.9209 45.1829 37.8896 45.1829V45.1829ZM15.412 45.5246C14.3903 45.5246 13.5611 46.36 13.5611 47.3941C13.5611 48.4268 14.3903 49.2646 15.412 49.2646C16.4347 49.2646 17.2635 48.4268 17.2635 47.3941C17.2635 46.36 16.4343 45.5246 15.412 45.5246ZM16.8207 50.1034H13.9585C13.827 50.1034 13.7097 50.2387 13.7097 50.3703V60.3075C13.7097 60.5997 13.8918 60.6864 14.1272 60.6864H16.7054C16.989 60.6864 17.0581 60.5473 17.0581 60.3028V50.3431C17.0582 50.3118 17.0522 50.2808 17.0403 50.2518C17.0284 50.2229 17.011 50.1966 16.989 50.1743C16.9669 50.1521 16.9407 50.1345 16.9119 50.1224C16.883 50.1103 16.852 50.104 16.8207 50.1039V50.1034ZM49.0392 50.1258H46.1894C46.1581 50.126 46.1272 50.1325 46.0983 50.1447C46.0695 50.1569 46.0434 50.1746 46.0215 50.1969C45.9995 50.2192 45.9822 50.2456 45.9704 50.2746C45.9587 50.3037 45.9528 50.3347 45.953 50.366V57.7336C45.953 57.7336 45.2286 58.2626 44.2016 58.2626C43.1747 58.2626 42.9021 57.797 42.9021 56.791V50.366C42.9023 50.3346 42.8964 50.3036 42.8846 50.2745C42.8728 50.2455 42.8555 50.2191 42.8335 50.1968C42.8115 50.1745 42.7853 50.1567 42.7564 50.1445C42.7275 50.1323 42.6965 50.126 42.6652 50.1258H39.7734C39.7101 50.1263 39.6496 50.1519 39.6052 50.1969C39.5607 50.2419 39.5358 50.3027 39.5361 50.366V57.2771C39.5361 60.2651 41.2017 60.9962 43.4925 60.9962C45.3721 60.9962 46.8876 59.9573 46.8876 59.9573C46.8876 59.9573 46.959 60.5053 46.9924 60.5697C47.0258 60.6345 47.1101 60.6998 47.2021 60.6998L49.0416 60.6917C49.073 60.6915 49.1041 60.6852 49.1331 60.6731C49.1621 60.6609 49.1884 60.6432 49.2105 60.6209C49.2326 60.5986 49.2501 60.5722 49.262 60.5431C49.274 60.514 49.28 60.4829 49.2799 60.4515L49.2785 50.3645C49.2782 50.3013 49.2531 50.2408 49.2085 50.196C49.1639 50.1512 49.1034 50.1258 49.0402 50.1253L49.0392 50.1258ZM56.8272 49.7884C55.2088 49.7884 54.108 50.5104 54.108 50.5104V45.4221C54.1081 45.3908 54.1022 45.3598 54.0904 45.3308C54.0786 45.3018 54.0612 45.2755 54.0392 45.2532C54.0172 45.231 53.991 45.2132 53.9622 45.2011C53.9333 45.1889 53.9024 45.1826 53.8711 45.1824H50.9922C50.9608 45.1824 50.9297 45.1886 50.9007 45.2007C50.8717 45.2127 50.8453 45.2304 50.8232 45.2527C50.801 45.275 50.7835 45.3014 50.7716 45.3305C50.7597 45.3596 50.7537 45.3907 50.7539 45.4221V60.4481C50.7537 60.4795 50.7597 60.5107 50.7716 60.5398C50.7835 60.5688 50.801 60.5953 50.8232 60.6176C50.8453 60.6398 50.8717 60.6575 50.9007 60.6696C50.9297 60.6816 50.9608 60.6878 50.9922 60.6878H52.9899C53.0805 60.6878 53.1482 60.6416 53.1982 60.5601C53.2473 60.4791 53.3192 59.8672 53.3192 59.8672C53.3192 59.8672 54.4963 60.9824 56.7257 60.9824C59.342 60.9824 60.8432 59.6556 60.8432 55.0244C60.8432 50.3931 58.4461 49.7879 56.8267 49.7879L56.8272 49.7884ZM55.7025 58.254C54.7146 58.224 54.0441 57.7756 54.0441 57.7756V53.0171C54.0441 53.0171 54.7056 52.612 55.5167 52.5386C56.5427 52.4467 57.5316 52.7569 57.5316 55.2045C57.5316 57.7861 57.086 58.2955 55.703 58.2536L55.7025 58.254ZM25.3507 58.1978C25.2254 58.1978 24.9042 58.2488 24.5739 58.2488C23.516 58.2488 23.1571 57.757 23.1571 57.1203V52.8951H25.3112C25.3426 52.8951 25.3738 52.8889 25.4028 52.8768C25.4319 52.8647 25.4582 52.847 25.4804 52.8246C25.5025 52.8023 25.52 52.7758 25.5319 52.7467C25.5437 52.7176 25.5497 52.6864 25.5495 52.6549V50.3407C25.5496 50.3094 25.5435 50.2783 25.5316 50.2492C25.5197 50.2202 25.5022 50.1938 25.48 50.1716C25.4579 50.1494 25.4316 50.1318 25.4026 50.1197C25.3736 50.1077 25.3426 50.1015 25.3112 50.1015H23.1571L23.1538 47.2564C23.1538 47.1482 23.0985 47.0944 22.9736 47.0944H20.038C19.9246 47.0944 19.8631 47.1449 19.8631 47.254V50.1944C19.8631 50.1944 18.392 50.5495 18.2928 50.578C18.2434 50.5925 18.1999 50.6226 18.1689 50.6638C18.138 50.7051 18.1213 50.7552 18.1213 50.8068V52.6544C18.1211 52.6857 18.1271 52.7167 18.1389 52.7457C18.1507 52.7747 18.1681 52.8011 18.1901 52.8233C18.2121 52.8456 18.2382 52.8633 18.2671 52.8755C18.2959 52.8876 18.3268 52.894 18.3581 52.8941H19.8631V57.3395C19.8631 60.6421 22.1792 60.9662 23.7423 60.9662C24.4558 60.9662 25.3102 60.7374 25.4513 60.685C25.5371 60.6531 25.5862 60.5649 25.5862 60.4691L25.5881 58.4366C25.5871 58.3736 25.5617 58.3134 25.5173 58.2688C25.4728 58.2242 25.4128 58.1986 25.3498 58.1973L25.3507 58.1978Z" fill="#333A72"/>
</svg>
