<svg width="69" height="79" viewBox="0 0 69 79" fill="none" xmlns="http://www.w3.org/2000/svg">
<path d="M0.775482 1.83313H68.013V77.8413H0.775482V1.83313Z" fill="#333A72"/>
<path d="M62.5103 59.7132C62.0178 56.2457 60.0176 53.3331 54.0927 50.6173C52.0345 49.548 49.74 48.7824 49.0562 47.0192C48.8135 45.9931 48.7812 45.4151 48.9348 44.7939C49.3758 42.7781 51.5044 42.1497 53.1914 42.7277C54.278 43.1394 55.3066 44.086 55.9269 45.596C58.8284 43.4721 58.8225 43.4861 60.8485 42.0265C60.1067 40.7265 59.7109 40.1266 59.2253 39.5705C57.4803 37.3671 55.1025 36.2323 51.2997 36.3191L49.3189 36.6087C47.4207 37.1509 45.6118 38.2772 44.551 39.7872C41.3681 43.8698 42.2758 51.015 46.1489 53.9555C49.9645 57.1929 55.5698 57.9294 56.2857 60.9567C56.9824 64.6629 53.8763 65.8626 50.789 65.4364C48.5138 64.9015 47.2483 63.5942 45.8803 61.2172C43.3623 62.8644 43.3623 62.8644 40.7735 64.5475C41.3874 66.0648 42.0325 66.7515 43.0616 68.066C47.9321 73.6508 60.1202 73.3763 62.3062 64.9233C62.3948 64.6331 62.9835 62.6975 62.5103 59.7132V59.7132ZM37.3279 36.7666H31.0389L31.0131 55.1467C31.0131 59.0557 31.192 62.6392 30.6296 63.7375C29.7096 65.8978 27.3253 65.6301 26.2388 65.2111C25.1328 64.5967 24.5705 63.723 23.919 62.488C23.7401 62.1334 23.6058 61.859 23.5607 61.8377L18.4474 65.3775C19.2977 67.3502 20.5502 69.0624 22.1546 70.1747C24.5512 71.8007 27.7722 72.2992 31.141 71.4249C33.3334 70.703 35.2251 69.2075 36.2156 66.9312C37.6475 63.947 37.3403 60.335 37.3274 56.3398C37.3596 49.8219 37.3279 43.3052 37.3279 36.7666V36.7666Z" fill="white"/>
</svg>
