<svg width="69" height="78" viewBox="0 0 69 78" fill="none" xmlns="http://www.w3.org/2000/svg">
<path d="M40.5888 9.53481C40.4814 9.57124 39.9174 9.78375 39.3213 10.0023C36.1308 11.1802 33.8696 12.5464 33.311 13.6332C33.0962 14.0461 33.0586 14.3861 33.1821 14.72C33.3217 15.0965 33.5796 15.3879 34.2885 15.9526C34.6215 16.2197 35.1855 16.7662 35.5561 17.179C37.3125 19.1584 38.1611 21.5871 38.0644 24.3315C37.957 27.422 36.6733 30.5124 34.2241 33.5968C33.3701 34.6776 32.4892 35.5762 30.8081 37.1002C29.4062 38.3692 28.6435 39.1949 28.1225 39.9903C26.5273 42.4433 26.957 44.6291 29.3847 46.4566C31.5278 48.0717 35.3037 49.4136 39.7617 50.1422C41.2548 50.385 42.9414 50.5429 43.3496 50.4761L43.6342 50.4275L44.08 49.5168C46.3413 44.9205 47.4799 40.5793 47.6196 36.0923C47.6787 34.0887 47.4585 31.7207 47.0771 30.3364C47.0073 30.0874 46.959 29.8749 46.9643 29.8688C46.9697 29.8628 47.6035 29.6442 48.3662 29.3892C52.3891 28.0352 56.2832 26.9666 59.5005 26.3351C60.1289 26.2137 60.6606 26.0862 60.6875 26.0558C60.8593 25.8676 60.3598 24.9811 59.5434 24.034C56.5356 20.5245 51.2182 17.853 44.977 16.7115C43.7739 16.4929 43.6289 16.414 43.1831 15.7461C42.4741 14.6836 41.8081 12.8742 40.9004 9.55303C40.8735 9.44374 40.8466 9.44374 40.5888 9.53481ZM41.0024 10.7856C41.3515 11.8663 41.5664 12.7103 41.5664 13.0078V13.2446L41.271 13.2082C39.665 12.9957 37.0976 12.5464 36.5498 12.3824C36.4101 12.3399 36.3296 12.2792 36.3564 12.2306C36.3994 12.1578 36.9419 11.8603 38.5639 11.0284C40.0732 10.2513 40.6479 9.9659 40.6963 9.95983C40.7177 9.95376 40.852 10.3302 41.0024 10.7856ZM37.6025 13.0625C39.563 13.53 40.997 13.8214 41.3086 13.8214C41.6147 13.8214 41.5825 13.8518 40.1377 14.8475C39.0258 15.6126 38.8969 15.6854 38.6176 15.6854H38.3115L37.4843 14.7443C36.4853 13.6028 35.8086 12.7649 35.8086 12.6678C35.8086 12.6314 35.83 12.6192 35.8569 12.6374C35.8838 12.6435 36.6733 12.8378 37.6025 13.0625ZM36.1523 14.1129C36.6357 14.7504 37.0063 15.2847 36.9848 15.3029C36.9419 15.3454 35.5669 14.9629 34.729 14.6714C33.9931 14.4164 33.9072 14.3314 34.1006 14.0461C34.2295 13.8578 35.1748 12.9653 35.2446 12.9592C35.2661 12.9592 35.6689 13.4753 36.1523 14.1129ZM42.415 15.4243C42.6084 15.9404 42.7534 16.3594 42.748 16.3654C42.7373 16.3715 40.1591 15.9222 39.9336 15.8736C39.8852 15.8615 40.3203 15.5276 40.9111 15.1207C41.5019 14.7139 41.9961 14.4104 42.0229 14.4407C42.0498 14.4711 42.2216 14.9082 42.415 15.4243ZM36.7915 16.4079C36.8398 16.4626 37.4575 18.703 37.4306 18.7334C37.4199 18.7455 37.1299 18.363 36.7807 17.8773C36.4316 17.3916 35.9052 16.7055 35.5991 16.3533L35.0512 15.7036L35.8999 16.0376C36.3725 16.2137 36.77 16.3837 36.7915 16.4079ZM39.2568 16.7055C40.3256 16.8755 41.2119 17.0333 41.228 17.0515C41.2441 17.0698 40.5942 17.6405 39.7939 18.3144C38.9882 18.9884 38.3276 19.5349 38.3169 19.5227C38.3061 19.5106 38.2256 19.2313 38.1342 18.8913C38.0429 18.5573 37.8173 17.8591 37.6294 17.3369C37.4414 16.8147 37.291 16.3897 37.3017 16.3897C37.3071 16.3897 38.188 16.5354 39.2568 16.7055ZM41.9423 17.6709C42.1787 18.2962 42.27 18.8913 42.3076 20.0874C42.3291 20.731 42.3291 21.2531 42.313 21.2531C42.2915 21.2531 41.9531 21.1196 41.561 20.9617C40.7768 20.6399 39.2407 20.0692 39.0581 20.0267C38.9775 20.0084 39.3481 19.6077 40.3256 18.6605C41.083 17.9198 41.7275 17.3187 41.7597 17.3187C41.7866 17.3187 41.8672 17.4766 41.9423 17.6709ZM44.6977 17.8226C45.8794 18.0959 46.916 18.3387 46.9965 18.363C47.1147 18.3934 46.83 18.5937 45.5786 19.3709C44.7192 19.9052 43.7417 20.5124 43.4087 20.7249C43.0756 20.9374 42.7964 21.1013 42.791 21.0953C42.7856 21.0892 42.8178 20.8888 42.8662 20.652C43.0434 19.7838 42.9306 18.703 42.5761 17.8409C42.4741 17.5919 42.3881 17.3673 42.3881 17.3551C42.3935 17.2883 42.6084 17.3369 44.6977 17.8226ZM47.9257 19.4559C47.8667 19.7595 47.7324 20.2756 47.6303 20.6095C47.4048 21.3442 46.5776 23.2568 46.4648 23.3054C46.4218 23.3236 46.0298 23.1232 45.6054 22.8561C45.1811 22.5889 44.5634 22.2367 44.2412 22.0728L43.6504 21.7753L45.8149 20.2027C47.6089 18.9034 47.9848 18.6545 48.0063 18.7698C48.0224 18.8488 47.9848 19.1523 47.9257 19.4559ZM49.5102 18.8973C51.7553 19.6259 54.1294 20.6095 53.9897 20.7553C53.9629 20.7856 53.6674 20.8949 53.3398 20.9981C51.6425 21.5385 49.2846 22.4614 48.1836 23.0139C47.8398 23.1839 47.5444 23.3114 47.5283 23.2871C47.5122 23.2689 47.6465 22.7103 47.8291 22.0425C48.1836 20.731 48.5971 18.9641 48.5971 18.7395C48.5971 18.6423 48.6294 18.6059 48.7099 18.6302C48.7636 18.6545 49.1235 18.7759 49.5102 18.8973ZM39.8476 21.5324C40.3579 21.7207 40.9594 21.9817 41.1797 22.1092C41.5771 22.3339 41.5825 22.34 41.4697 22.4796C41.2656 22.7346 39.0366 25.0844 38.9721 25.1086C38.9399 25.1208 38.913 24.7686 38.913 24.2525C38.913 23.36 38.8217 21.7449 38.7519 21.3867C38.6982 21.1135 38.7412 21.1196 39.8476 21.5324ZM54.1132 22C53.6245 22.9168 52.8134 24.2222 52.2334 25.0479C51.6372 25.8919 50.375 27.4766 50.2998 27.4766C50.2729 27.4766 50.0903 27.2216 49.8916 26.9059C49.1718 25.7462 48.3393 24.7443 47.6089 24.1615C47.539 24.1068 47.4961 24.0461 47.5122 24.0279C47.5283 24.0097 48.726 23.5118 50.1709 22.9168C53.0927 21.7207 54.3818 21.2349 54.4624 21.2956C54.4731 21.3017 54.3173 21.6174 54.1132 22ZM55.9394 21.8421C57.959 23.4329 59.3286 24.7201 59.8227 25.4912C59.9463 25.6855 60.0376 25.8494 60.0268 25.8615C60.0161 25.8737 59.3662 25.9526 58.582 26.0437C55.4506 26.3898 53.2216 26.748 52.04 27.088C51.7231 27.1791 51.4599 27.2459 51.4546 27.2398C51.4492 27.2337 51.6587 26.9423 51.9218 26.5841C53.2861 24.7322 54.5215 22.8075 54.978 21.8057C55.1015 21.5385 55.2197 21.326 55.2412 21.326C55.268 21.326 55.5796 21.5567 55.9394 21.8421ZM44.6386 23.8154C45.0254 24.0522 45.3208 24.2647 45.3047 24.3011C45.2724 24.3679 41.8725 26.4748 41.8403 26.4444C41.8349 26.4383 42.0068 25.8069 42.2324 25.0358C42.458 24.2647 42.6728 23.4268 42.7158 23.1718L42.791 22.7043L43.3657 23.0504C43.6826 23.2386 44.2519 23.5786 44.6386 23.8154ZM41.7866 23.9368C41.459 25.224 40.7929 26.8876 40.4868 27.173C40.417 27.2398 40.2773 27.1487 39.8315 26.7359C39.5146 26.4505 39.1923 26.1651 39.1064 26.0983C39.0258 26.0315 38.9614 25.9648 38.9775 25.9465C39.2138 25.6855 41.9209 23.2143 41.937 23.2507C41.9423 23.275 41.8779 23.5847 41.7866 23.9368ZM47.9526 26.1773C48.4629 26.5659 49.6015 27.7134 49.5424 27.7863C49.5263 27.8045 48.3715 28.2295 46.9804 28.7274C45.5893 29.2252 44.0371 29.7899 43.5322 29.9781C43.0273 30.1724 42.6084 30.3181 42.603 30.3121C42.5976 30.306 42.9521 29.8506 43.3872 29.2981C44.5258 27.8591 45.6967 26.323 46.1157 25.7158L46.4756 25.1937L46.9428 25.479C47.1953 25.6369 47.6518 25.9526 47.9526 26.1773ZM45.3154 25.3515C45.2832 25.4001 44.977 25.8372 44.6333 26.3291C44.2895 26.8209 43.4624 28.017 42.7964 28.9884L41.5825 30.7553L41.5449 30.4578C41.4697 29.881 41.1958 28.7456 41.04 28.3631L40.8842 27.9745L41.6577 27.5373C42.4526 27.088 44.1176 26.068 44.8965 25.5519C45.3745 25.2362 45.4067 25.2179 45.3154 25.3515ZM38.8701 27.4887C39.187 27.6709 39.4824 27.9138 39.4824 27.9866C39.4824 28.102 37.4253 29.8992 37.3662 29.8324C37.3554 29.8142 37.5381 29.4013 37.7798 28.9095C38.0215 28.4177 38.2631 27.8652 38.3222 27.677C38.3813 27.4887 38.4673 27.337 38.5156 27.337C38.5639 27.3309 38.7197 27.4037 38.8701 27.4887ZM40.6211 29.6988C40.7607 30.0146 40.9111 30.895 40.8359 30.9739C40.8037 31.0042 39.955 31.4596 38.9453 31.9879C37.9355 32.51 36.6196 33.2143 36.018 33.5543C35.4165 33.8944 34.9599 34.1312 35.0083 34.0887C35.0512 34.0462 35.7119 33.4147 36.4799 32.6982C37.9624 31.3078 39.6489 29.6442 39.955 29.2738L40.143 29.0492L40.3256 29.2435C40.4223 29.3527 40.5566 29.5592 40.6211 29.6988ZM38.9614 29.6806C38.8164 29.8324 38.0215 30.6096 37.205 31.411C36.3886 32.2125 35.4057 33.1779 35.0244 33.5543C34.2509 34.3133 34.2509 34.3133 35.2392 32.8622C36.0019 31.7389 36.3994 31.32 37.4951 30.4882C38.0268 30.0874 39.0849 29.4074 39.1923 29.4074C39.2085 29.4074 39.1064 29.5288 38.9614 29.6806ZM46.6259 30.4457C46.6635 30.6824 46.7172 31.4171 46.7387 32.0729L46.7763 33.269L46.5293 33.1415C45.6806 32.6982 43.2959 31.1803 43.3872 31.1378C43.9082 30.901 46.4809 29.9356 46.5131 29.9721C46.5346 29.9963 46.5883 30.2089 46.6259 30.4457ZM44.6064 32.5889C45.6001 33.2508 46.4218 33.7972 46.4326 33.8094C46.4433 33.8215 46.3144 33.9429 46.1533 34.0765C45.8364 34.3376 42.4741 36.3048 42.4257 36.2562C42.4096 36.238 42.458 35.9102 42.5278 35.5337C42.6674 34.7687 42.7856 32.4857 42.7319 31.7632C42.7104 31.5082 42.7212 31.326 42.7534 31.3503C42.7749 31.3685 43.6128 31.9271 44.6064 32.5889ZM41.8618 32.1032C41.937 32.8136 41.8457 34.2404 41.6738 34.9873C41.4751 35.8616 41.3569 36.2259 41.271 36.2562C41.1528 36.2987 40.417 35.5459 39.9712 34.9144C39.52 34.2769 38.9238 33.0808 39.0151 32.9836C39.0688 32.9229 41.6899 31.7025 41.7758 31.7025C41.7973 31.6964 41.8349 31.8786 41.8618 32.1032ZM38.6445 33.8883C38.9238 34.538 39.5576 35.473 40.2505 36.2684C40.6963 36.7784 40.809 36.9423 40.7392 36.997C40.4277 37.2338 39.0312 37.9745 38.1504 38.3631C37.0815 38.8367 35.6904 39.3831 35.6582 39.3346C35.6474 39.3164 35.9643 38.6606 36.3672 37.8774C37.2373 36.1712 38.3383 33.7486 38.3383 33.5483C38.3437 33.2993 38.435 33.4026 38.6445 33.8883ZM36.9956 33.9308C36.9795 33.9794 36.8452 34.3558 36.7002 34.7687C36.0825 36.5416 34.8794 38.9521 34.6108 38.9521C34.4013 38.9521 34.0952 37.5495 34.0092 36.2016L33.9663 35.5216L35.438 34.6837C36.249 34.2222 36.9365 33.8458 36.9687 33.8458C37.0009 33.8397 37.0117 33.8822 36.9956 33.9308ZM46.8193 35.5701C46.8247 36.5902 46.4487 39.0613 46.2446 39.3103C46.1587 39.4135 45.2295 39.0249 44.3862 38.5331C43.6342 38.096 42.3935 37.2277 42.3935 37.1366C42.3935 37.1123 42.5815 37.0031 42.8178 36.8938C43.2636 36.6813 45.3422 35.4244 46.2231 34.8355L46.728 34.4955L46.771 34.7565C46.7924 34.9023 46.8139 35.2726 46.8193 35.5701ZM32.9565 36.748C33.0424 37.5556 33.2627 38.5453 33.5366 39.3285C33.6494 39.6503 33.7299 39.9296 33.7138 39.9417C33.6064 40.051 29.186 41.4293 28.6006 41.5325L28.3213 41.5811L28.3642 41.3382C28.4233 40.9921 28.853 40.0085 29.1699 39.4742C29.5674 38.8124 30.5449 37.7013 31.1894 37.1852C31.6728 36.8027 32.833 36.0316 32.8652 36.0802C32.8867 36.0862 32.9189 36.3837 32.9565 36.748ZM42.9843 38.4542C44.3486 39.1949 44.8642 39.4499 45.5195 39.7049L46.019 39.8992L45.7021 40.0814C43.9135 41.1075 40.7446 42.5647 39.9282 42.7469C39.7456 42.7894 39.7187 42.7772 39.7563 42.674C39.896 42.2611 41.7866 37.847 41.8242 37.847C41.8457 37.847 42.372 38.1202 42.9843 38.4542ZM40.5835 38.2902C40.4868 38.8124 39.9658 40.4943 39.665 41.2593C39.4018 41.9272 38.7949 43.2204 38.6875 43.3419C38.6391 43.3965 37.5595 42.7104 37.0493 42.2976C36.4746 41.8361 35.2177 40.4639 35.2553 40.3364C35.2715 40.2878 36.0341 39.9539 36.958 39.5957C38.9023 38.8367 39.9873 38.3813 40.3042 38.1931C40.6049 38.011 40.6318 38.0231 40.5835 38.2902ZM46.019 40.6096C46.0029 40.7614 45.8901 41.4232 45.7719 42.0972C45.4013 44.198 44.9502 45.637 44.6655 45.637C44.268 45.637 41.561 44.8962 40.6855 44.5441C40.0893 44.3073 39.5791 44.034 39.4072 43.8701C39.2998 43.7669 39.3589 43.7305 40.1323 43.3722C42.6352 42.2186 45.5249 40.7432 45.8364 40.4639C46.0244 40.2939 46.0512 40.3182 46.019 40.6096ZM33.3432 41.2532C33.0586 41.83 32.4785 42.7772 31.3667 44.4712L30.4214 45.9163L30.1367 45.6855C29.7392 45.3637 29.1054 44.5866 28.8423 44.0948C28.5576 43.5665 28.3642 42.9108 28.3427 42.4129L28.3266 42.0243L28.7939 41.9697C29.4277 41.8968 31.2055 41.4839 32.4677 41.1075C33.0424 40.9375 33.5205 40.81 33.5312 40.8161C33.5366 40.8343 33.456 41.0286 33.3432 41.2532ZM36.0986 42.7408C36.4155 42.9958 36.8506 43.3237 37.0708 43.4694L37.4736 43.7365L37.291 43.8215C37.1889 43.8701 35.7173 44.4773 34.0146 45.1695C31.1089 46.3534 30.9209 46.4263 30.8403 46.3049C30.792 46.232 30.7597 46.1591 30.7651 46.1348C30.7705 46.1106 31.5547 44.963 32.5107 43.5847L34.2456 41.0771L34.8847 41.6782C35.2446 42.0122 35.7817 42.4858 36.0986 42.7408ZM36.813 46.5113C36.1792 47.586 35.6421 48.4907 35.6206 48.5149C35.5722 48.5878 34.5571 48.3206 33.7998 48.0292C33.0049 47.7256 32.0219 47.167 31.6352 46.7906L31.3559 46.5174L31.9843 46.3231C34.5464 45.5338 37.9355 44.5198 37.9516 44.5319C37.9624 44.5441 37.4467 45.4366 36.813 46.5113ZM39.8584 44.8841C41.2173 45.4123 42.4526 45.7098 44.0586 45.9041L44.499 45.9588L43.3012 46.4445C40.3149 47.6649 37.8925 48.521 36.6787 48.7882C36.3349 48.861 36.0234 48.9278 35.9912 48.9278C35.959 48.9278 36.2006 48.5514 36.5337 48.0899C37.4467 46.8331 38.435 45.4002 38.6982 44.9569C38.8271 44.7444 38.956 44.5623 38.9829 44.5623C39.0151 44.5684 39.4072 44.708 39.8584 44.8841ZM44.311 47.7256C43.7954 49.2253 43.4194 50.1421 43.2905 50.1968C43.0381 50.3061 39.5092 49.7232 38.4297 49.3893C37.7153 49.1707 37.2588 48.9582 37.393 48.9035C37.4467 48.8853 37.957 48.7457 38.5317 48.5999C40.3955 48.1264 43.2422 47.1488 44.4238 46.5781C44.5742 46.5052 44.7085 46.4506 44.7192 46.4627C44.7299 46.4749 44.5473 47.0395 44.311 47.7256ZM23.4443 48.9946C23.1919 49.116 23.0737 49.3528 23.0468 49.7961C23.02 50.2089 23.02 50.215 22.8374 50.215C22.6548 50.215 22.6494 50.2271 22.6709 50.5186C22.687 50.7918 22.7085 50.8222 22.8642 50.8465L23.0361 50.8708V53.093L23.3315 53.0626L23.6323 53.0383L23.6538 51.9454L23.6753 50.8525H24.5561V51.654C24.5561 52.6497 24.6474 52.9108 25.0288 53.0565C25.2006 53.1233 25.3618 53.1355 25.5337 53.093C25.7754 53.0383 25.7861 53.0201 25.8076 52.7287L25.8291 52.419L25.6196 52.4615C25.2544 52.5344 25.2329 52.4858 25.2436 51.4779L25.249 50.8586H25.4316C25.7485 50.8586 25.8183 50.7918 25.8183 50.4943V50.215H25.249V49.9479C25.249 49.5532 25.1899 49.4864 24.8623 49.5107L24.583 49.5289L24.5615 49.8689L24.54 50.2089H23.6645V49.9661C23.6645 49.6321 23.8203 49.4682 24.0888 49.5289C24.2929 49.5714 24.2983 49.5714 24.2983 49.3346C24.2983 49.2071 24.2607 49.0553 24.2231 49.0067C24.1372 48.9217 23.6323 48.9096 23.4443 48.9946ZM9.44723 49.11C9.17331 49.3285 9.30758 49.7839 9.65133 49.7839C10.0058 49.7839 10.0703 49.7293 10.0703 49.4196C10.0649 49.025 9.75338 48.8671 9.44723 49.11ZM4.79587 49.3043C4.69919 49.3832 4.68844 49.5653 4.70456 51.2168L4.72067 53.0383L5.02145 53.0626L5.32223 53.0869V51.5022C5.32223 50.6279 5.33835 49.9296 5.35446 49.9479C5.37594 49.9661 5.55856 50.5429 5.76803 51.229C5.97751 51.9151 6.19235 52.6133 6.24606 52.7833L6.34811 53.093L6.66501 53.0626L6.9819 53.0383L7.4653 51.5204L7.9487 50.0025L7.98092 51.5204C8.00241 52.3583 8.02389 53.0505 8.02926 53.0626C8.03463 53.0748 8.17965 53.0748 8.34079 53.0626L8.64157 53.0383L8.65768 51.2229C8.66842 49.9418 8.65231 49.3771 8.5986 49.3043C8.48581 49.1464 7.77145 49.1768 7.64254 49.3407C7.58883 49.4136 7.36325 50.0025 7.1484 50.6461C6.93356 51.2897 6.7402 51.8422 6.71872 51.8726C6.69723 51.9029 6.50924 51.3868 6.29977 50.7311C6.0903 50.0632 5.85934 49.4682 5.77878 49.3771C5.66598 49.2496 5.5693 49.2132 5.26852 49.2132C5.06979 49.2132 4.85495 49.2557 4.79587 49.3043ZM11.3056 50.215C10.8437 50.385 10.5698 50.9254 10.5698 51.6844C10.5698 52.5344 10.8545 52.9958 11.456 53.1112C11.7299 53.1658 12.1972 53.0444 12.3584 52.8805C12.4658 52.7712 12.5141 52.3644 12.4282 52.2733C12.4067 52.249 12.2885 52.2915 12.165 52.3705C11.7085 52.6497 11.3701 52.4919 11.2627 51.9515C11.1928 51.5933 11.268 51.1318 11.4345 50.9315C11.5688 50.7675 11.9018 50.7554 12.1596 50.9072C12.4013 51.0468 12.4712 50.9983 12.4712 50.6825C12.4712 50.5065 12.4336 50.4093 12.3208 50.3304C12.1274 50.1786 11.5581 50.1239 11.3056 50.215ZM13.771 50.3607C13.5507 50.5793 13.5507 50.5793 13.5293 50.4154C13.5132 50.2757 13.4702 50.2454 13.2392 50.2272L12.9707 50.2029V53.0687H13.6045V52.1822C13.6045 51.2958 13.6045 51.2958 13.7924 51.065C13.9482 50.8768 14.018 50.8404 14.206 50.8647C14.4423 50.895 14.4907 50.8343 14.4907 50.5004C14.4907 50.0875 14.1255 50.0146 13.771 50.3607ZM15.5219 50.2272C15.0117 50.3972 14.7002 51.0711 14.7646 51.8665C14.8237 52.6012 15.1567 53.0201 15.7583 53.1173C16.8217 53.2812 17.5146 52.2976 17.2138 51.059C17.0312 50.3304 16.3007 49.9661 15.5219 50.2272ZM16.2632 50.7857C16.5962 50.9861 16.6821 51.8604 16.4082 52.2733C16.2363 52.5283 15.8549 52.5769 15.624 52.3705C15.4843 52.2429 15.4736 52.1822 15.4736 51.6479C15.4736 51.0954 15.4843 51.0529 15.6508 50.889C15.8335 50.7068 16.0698 50.6704 16.2632 50.7857ZM18.1323 50.2454C17.81 50.4032 17.6919 50.6157 17.6919 51.0104C17.6919 51.4354 17.81 51.5933 18.374 51.8969C18.6963 52.0729 18.7661 52.1397 18.7661 52.2915C18.7661 52.419 18.7177 52.4919 18.5888 52.5405C18.4277 52.6012 18.2773 52.5708 17.7671 52.3887C17.6704 52.3522 17.6543 52.3826 17.6704 52.6255C17.6865 52.8562 17.7241 52.923 17.8798 53.008C18.143 53.1537 18.7768 53.1416 19.04 52.9837C19.4214 52.753 19.5395 52.0547 19.2602 51.7026C19.1958 51.6236 18.9648 51.4597 18.7339 51.3383C18.3149 51.1136 18.2129 50.9497 18.3579 50.7554C18.4546 50.6279 18.7392 50.6279 19.0239 50.7615C19.2119 50.8525 19.2495 50.8525 19.2817 50.7675C19.3462 50.5732 19.271 50.3425 19.1152 50.2514C18.9057 50.1239 18.3686 50.1239 18.1323 50.2454ZM20.6943 50.1968C20.1357 50.4214 19.8833 50.804 19.8296 51.484C19.7651 52.3219 20.0337 52.8562 20.6137 53.0505C21.5859 53.3723 22.3432 52.7347 22.3379 51.5993C22.3325 50.9132 22.0586 50.4093 21.5859 50.2272C21.3657 50.1422 20.8662 50.1239 20.6943 50.1968ZM21.4301 50.889C21.5966 51.0468 21.6074 51.0954 21.6074 51.5993C21.6074 52.0729 21.5913 52.1579 21.4516 52.3219C21.2529 52.5587 20.8769 52.5769 20.6889 52.3644C20.5278 52.1822 20.4795 51.9454 20.5171 51.4536C20.5385 51.1318 20.5815 51.0225 20.7158 50.8829C20.9414 50.6643 21.2046 50.6704 21.4301 50.889ZM9.38278 51.6236L9.39889 53.0444H10.0327V50.2514L9.69967 50.2332L9.36667 50.2089L9.38278 51.6236ZM6.35885 54.8295C5.54782 55.0298 4.93551 55.5338 4.61325 56.2806C4.41452 56.736 4.40378 56.8028 4.40378 57.5435C4.40378 58.26 4.41989 58.3693 4.57565 58.7336C4.91403 59.5168 5.53708 60.0693 6.83688 60.7372C8.25485 61.4658 8.64157 61.9151 8.64157 62.8441C8.64157 63.688 8.29245 64.192 7.52438 64.4591C6.76169 64.7263 5.99899 64.5988 5.01071 64.0402C4.68307 63.852 4.38766 63.688 4.36618 63.6759C4.33932 63.6638 4.28024 63.7063 4.22116 63.767C4.10299 63.9066 4.08151 64.5988 4.1943 64.8295C4.43063 65.3335 5.67135 65.801 6.75094 65.801C8.78122 65.801 10.0918 64.4349 9.98434 62.4251C9.96286 61.988 9.91452 61.7755 9.75338 61.4112C9.43649 60.6886 9.02829 60.3122 7.78756 59.6261C7.21286 59.3104 6.58444 58.9279 6.38571 58.7761C5.60153 58.181 5.41891 57.1671 5.97213 56.4628C6.27829 56.0681 6.58981 55.9406 7.22897 55.9345C7.8359 55.9345 8.08297 56.0074 8.78122 56.4081C9.38278 56.7542 9.43649 56.7238 9.43649 56.0499C9.43649 55.4427 9.40426 55.3881 8.85641 55.1027C8.13131 54.7445 7.15915 54.6352 6.35885 54.8295ZM14.8237 54.787C13.6259 55.0056 12.7021 55.6613 12.0844 56.736C11.7729 57.2824 11.601 57.7925 11.4399 58.6546C11.2627 59.5957 11.3056 61.6905 11.5151 62.5526C12.0307 64.6717 13.1855 65.6917 15.1621 65.7888C16.2041 65.8374 16.6069 65.7524 17.6274 65.2606C17.665 65.2424 17.8369 65.3638 18.0088 65.5278C18.664 66.1714 20.1035 67.0943 20.6084 67.2035C20.9199 67.2703 21.0058 67.155 21.0058 66.6571C21.0058 66.4264 20.9897 66.1896 20.9682 66.1228C20.9467 66.056 20.646 65.8435 20.2915 65.6431C19.749 65.3395 18.664 64.5502 18.664 64.4591C18.664 64.4409 18.7661 64.2831 18.8842 64.1009C19.3945 63.348 19.7007 62.2976 19.8081 60.9376C19.8886 59.8993 19.8134 58.7882 19.604 57.926C19.2226 56.3656 18.2934 55.2909 16.9829 54.8902C16.5478 54.7688 15.3017 54.702 14.8237 54.787ZM16.7251 56.1531C17.477 56.4688 17.9765 57.1124 18.2666 58.1143C18.4116 58.6182 18.4384 58.8489 18.4653 59.9175C18.5029 61.3505 18.4062 62.0426 18.0732 62.8441C17.5415 64.1313 16.3759 64.7749 15.0171 64.5381C13.3305 64.2466 12.5893 62.8077 12.6753 59.9843C12.7236 58.3632 12.9814 57.5132 13.6474 56.7967C14.0395 56.3717 14.3242 56.1835 14.7807 56.056C15.3071 55.8981 16.2417 55.9467 16.7251 56.1531ZM31.9414 54.8355C31.1626 55.0481 30.5019 55.5945 30.2173 56.2503C29.895 57.0031 29.8842 58.0657 30.1904 58.7518C30.5503 59.5593 31.0337 59.9783 32.5376 60.7858C33.6762 61.399 34.0576 61.7573 34.2133 62.3583C34.396 63.0687 34.1596 63.8095 33.6333 64.1981C32.8115 64.7992 31.6406 64.702 30.3891 63.9309C29.8252 63.5848 29.7446 63.6213 29.7446 64.2345C29.7446 64.8052 29.8144 64.9752 30.1582 65.1999C31.2163 65.9042 32.978 65.9953 34.0737 65.4124C35.395 64.7081 35.9912 62.8562 35.3681 61.3869C35.2876 61.1987 35.062 60.8708 34.8579 60.6461C34.5464 60.3001 34.2993 60.1301 33.2573 59.5532C31.5278 58.5939 31.184 58.181 31.2861 57.2035C31.3398 56.7178 31.5654 56.3595 31.9629 56.1349C32.2368 55.977 32.3872 55.9467 32.8061 55.9467C33.4292 55.9467 33.6816 56.0195 34.31 56.3838C34.8471 56.6935 34.9599 56.7178 35.019 56.5478C35.0942 56.3353 35.0566 55.6249 34.9653 55.4731C34.8418 55.2788 34.2133 54.9631 33.6816 54.8355C33.1499 54.708 32.4194 54.702 31.9414 54.8355ZM22.0962 54.9509C22.0371 55.0177 22.021 56.2745 22.021 60.1726V65.3092L22.1767 65.4853L22.3325 65.6613H24.5776C26.2964 65.6613 26.8335 65.6371 26.8872 65.5703C26.9839 65.4306 27.0268 65.0117 26.9731 64.7324L26.9248 64.4834L25.1255 64.447L23.3261 64.4106L23.31 59.6929C23.2993 56.0317 23.2778 54.9631 23.2187 54.9206C23.0844 54.8355 22.1821 54.8538 22.0962 54.9509ZM38.9775 57.6346C38.6714 57.6892 38.059 57.9625 37.8066 58.1568C37.1997 58.6243 36.77 59.3711 36.5283 60.3729C36.3779 61.0104 36.3779 62.583 36.5283 63.2327C36.8398 64.5624 37.5273 65.3699 38.623 65.6978C39.101 65.8374 40.3095 65.8374 40.9004 65.6978C41.459 65.5642 42.039 65.3213 42.1465 65.1817C42.2485 65.0481 42.2431 64.3256 42.1411 64.2102C42.0874 64.1495 41.9209 64.192 41.4751 64.362C39.7617 65.0177 38.4404 64.7324 37.9301 63.597C37.7798 63.263 37.6401 62.5951 37.6401 62.2187V62.0183H39.8154C41.1904 62.0183 42.0605 61.988 42.184 61.9394C42.4633 61.8301 42.5385 61.5569 42.4902 60.8526C42.3935 59.4561 41.9799 58.5818 41.1689 58.0293C40.6533 57.6771 39.6972 57.501 38.9775 57.6346ZM40.1377 58.7578C40.7822 58.9764 41.1797 59.5957 41.2387 60.4518L41.271 60.9437H37.6294L37.6723 60.6461C37.7851 59.9054 38.0591 59.3529 38.4834 59.025C38.9614 58.6546 39.5576 58.5575 40.1377 58.7578ZM46.3628 57.6528C46.062 57.7621 45.6269 58.1568 45.3154 58.6L45.0146 59.0371L44.9824 58.3996L44.9502 57.7621L44.5742 57.7378C44.3647 57.7257 44.1338 57.7317 44.0532 57.756L43.9082 57.7925V61.6844C43.9082 65.1695 43.9189 65.5763 44.0102 65.6188C44.1391 65.6735 44.8857 65.6735 45.0092 65.6188C45.1006 65.5824 45.1113 65.2849 45.1113 63.0384V60.5004L45.3906 60.0572C45.7719 59.45 46.2661 58.9582 46.5507 58.8975C46.7011 58.8671 46.9375 58.8914 47.2168 58.9704C47.4907 59.0493 47.6733 59.0675 47.7109 59.025C47.7431 58.9886 47.7646 58.6971 47.7539 58.3936C47.7378 57.8471 47.727 57.8228 47.5498 57.7317C47.3296 57.6103 46.6045 57.5617 46.3628 57.6528ZM57.2553 57.6589C56.7558 57.756 56.0468 58.1689 55.6816 58.5818C54.9887 59.365 54.6987 60.4458 54.747 62.0487C54.79 63.4938 55.0263 64.2102 55.6977 64.9206C56.3369 65.6067 57.0136 65.8313 58.2382 65.7888C59.1352 65.7524 59.9409 65.5521 60.3115 65.2728C60.4941 65.1331 60.5156 65.0785 60.5317 64.7263C60.5424 64.5138 60.521 64.2891 60.4887 64.2284C60.4243 64.1131 60.478 64.1009 59.4091 64.4834C58.9741 64.6352 58.7431 64.6717 58.206 64.6777C57.1425 64.6838 56.5947 64.362 56.2348 63.5363C56.0844 63.1902 56.0307 62.9473 56.0039 62.5466L55.9716 62.0183L58.249 62.0001C60.9829 61.9758 60.8003 62.0426 60.7949 61.0894C60.7895 59.4136 60.1504 58.2478 58.9956 57.7925C58.5766 57.6346 57.7334 57.5678 57.2553 57.6589ZM58.4477 58.7639C59.0761 58.9764 59.4897 59.6079 59.5756 60.5004L59.6186 60.9437H55.977L56.0146 60.5854C56.1059 59.7111 56.6377 58.9582 57.3252 58.7214C57.5883 58.6303 58.104 58.6546 58.4477 58.7639ZM64.7212 57.6467C64.313 57.7985 63.749 58.3328 63.4375 58.8611C63.3354 59.0371 63.33 59.025 63.33 58.4664C63.33 58.1143 63.3032 57.8592 63.2548 57.8107C63.1528 57.6953 62.3686 57.6953 62.2666 57.8107C62.1591 57.9321 62.1591 65.4549 62.2666 65.5763C62.3686 65.6917 63.2763 65.6917 63.3784 65.5763C63.4321 65.5156 63.4536 64.8356 63.4536 62.9837V60.4761L63.6899 60.0815C64.039 59.4925 64.4795 59.0311 64.7856 58.9279C65.0488 58.8368 65.1508 58.8489 65.8545 59.0554C66.0532 59.1161 66.1123 58.9886 66.1123 58.5089C66.1123 57.9746 66.0693 57.8289 65.8706 57.7257C65.6665 57.6224 64.9306 57.5678 64.7212 57.6467ZM47.8989 57.835C47.8344 57.926 48.0278 58.5939 49.0053 61.6783C49.6552 63.7305 50.2407 65.4731 50.3051 65.5521C50.5468 65.8313 51.7446 65.7646 51.852 65.467C51.9326 65.2303 54.1508 58.266 54.1938 58.1021C54.269 57.8167 54.1347 57.7317 53.5923 57.7317C53.2754 57.7317 53.0766 57.7621 53.039 57.8228C53.0068 57.8714 52.5556 59.3225 52.04 61.0469C51.5244 62.7712 51.0839 64.1556 51.0571 64.1191C51.0302 64.0888 50.5898 62.6802 50.0796 60.9862C49.5693 59.2922 49.1181 57.8714 49.0805 57.8167C48.9838 57.6771 47.9956 57.6953 47.8989 57.835Z" fill="#333A72"/>
</svg>
