<svg width="73" height="79" viewBox="0 0 73 79" fill="none" xmlns="http://www.w3.org/2000/svg">
<path d="M36.5224 34.9217C39.3772 34.9217 41.6915 32.3936 41.6915 29.2751C41.6915 26.1565 39.3772 23.6284 36.5224 23.6284C33.6676 23.6284 31.3533 26.1565 31.3533 29.2751C31.3533 32.3936 33.6676 34.9217 36.5224 34.9217Z" fill="#333A72"/>
<path d="M36.5224 50.0402C40.5798 54.3511 44.5817 56.9012 47.8054 56.9012C48.8615 56.9012 49.8619 56.6583 50.6957 56.1119C53.5859 54.2904 54.6419 49.7366 53.6415 43.2399C53.4747 42.0863 53.2524 40.9327 52.9745 39.7184C54.0861 39.3541 55.0866 38.9898 56.0871 38.6255C61.7008 36.2575 64.8134 32.9788 64.8134 29.3965C64.8134 25.7535 61.7008 22.4748 56.0871 20.1676C55.0866 19.7426 54.0861 19.3783 52.9745 19.0747C53.2524 17.8604 53.4747 16.7067 53.6415 15.5531C54.5864 8.93501 53.5303 4.32054 50.6401 2.49903C49.8064 1.95258 48.8059 1.70972 47.7498 1.70972C44.5817 1.70972 40.5243 4.25982 36.4668 8.5707C32.4649 4.25982 28.4631 1.70972 25.2393 1.70972C24.1833 1.70972 23.1828 1.95258 22.3491 2.49903C19.4589 4.32054 18.4028 8.87429 19.4033 15.371C19.57 16.5246 19.7924 17.6782 20.0703 18.8925C18.9586 19.2568 17.9582 19.6211 16.9577 19.9854C11.344 22.3534 8.23141 25.6321 8.23141 29.2144C8.23141 32.8574 11.344 36.1361 16.9577 38.4433C17.9582 38.8683 18.9586 39.2326 20.0703 39.5362C19.7924 40.7506 19.57 41.9042 19.4033 43.0578C18.4584 49.5545 19.5145 54.169 22.3491 55.9297C23.1828 56.4762 24.1833 56.7191 25.2393 56.7191C28.4631 56.8405 32.4649 54.2904 36.5224 50.0402ZM33.4098 41.8435C34.4103 41.9042 35.4663 41.9042 36.5224 41.9042C37.5784 41.9042 38.6345 41.9042 39.6349 41.8435C38.6345 43.3007 37.5784 44.6364 36.5224 45.9115C35.4663 44.6364 34.4103 43.3007 33.4098 41.8435ZM26.5177 35.5896C27.0735 36.6218 27.5738 37.5933 28.1852 38.5648C26.4621 38.3219 24.8503 38.0183 23.294 37.654C23.7942 36.0147 24.35 34.3146 25.017 32.6145C25.4617 33.586 25.9619 34.6182 26.5177 35.5896ZM23.294 20.9569C24.8503 20.5926 26.4621 20.289 28.1852 20.0462C27.6293 21.0176 27.0735 21.9891 26.5177 23.0213C25.9619 24.0535 25.4617 25.0249 25.017 26.0571C24.2945 24.2963 23.7386 22.5963 23.294 20.9569ZM26.351 29.2751C27.0735 27.6358 27.8517 25.9964 28.741 24.3571C29.5747 22.7784 30.5196 21.1998 31.4645 19.6211C33.1319 19.4997 34.7994 19.439 36.5224 19.439C38.301 19.439 39.9684 19.4997 41.5803 19.6211C42.5808 21.1998 43.4701 22.7784 44.3038 24.3571C45.1931 25.9964 45.9712 27.6358 46.6938 29.2751C45.9712 30.9145 45.1931 32.5538 44.3038 34.1932C43.4701 35.7718 42.5252 37.3504 41.5803 38.9291C39.9129 39.0505 38.2454 39.1112 36.5224 39.1112C34.7438 39.1112 33.0763 39.0505 31.4645 38.9291C30.464 37.3504 29.5747 35.7718 28.741 34.1932C27.8517 32.5538 27.0735 30.9145 26.351 29.2751ZM48.0833 25.9964L46.5826 22.9606C46.0268 21.9284 45.5266 20.9569 44.9152 19.9854C46.6382 20.2283 48.2501 20.5319 49.8064 20.8962C49.3061 22.5963 48.7503 24.2963 48.0833 25.9964ZM48.0833 32.5538C48.7503 34.2539 49.3061 35.9539 49.8064 37.5933C48.2501 37.9576 46.6382 38.2612 44.9152 38.504C45.471 37.5326 46.0268 36.5611 46.5826 35.5289C47.0829 34.6182 47.5831 33.586 48.0833 32.5538ZM49.3617 53.6225C48.917 53.9261 48.3612 54.0475 47.7498 54.0475C45.0263 54.0475 41.6359 51.6189 38.301 47.9759C39.9129 46.0936 41.4691 43.9686 43.0254 41.6006C45.6377 41.3577 48.1389 40.9327 50.4733 40.3255C50.7512 41.4184 50.918 42.5113 51.0847 43.6042C51.8629 48.7652 51.2515 52.4689 49.3617 53.6225ZM52.2519 21.6248C58.4771 23.5677 62.201 26.5429 62.201 29.2751C62.201 31.6431 59.6443 34.011 55.1422 35.8932C54.2529 36.2575 53.2524 36.6218 52.2519 36.9254C51.5294 34.436 50.6401 31.8859 49.5284 29.2751C50.6401 26.6643 51.585 24.1142 52.2519 21.6248ZM47.8054 4.50269C48.4168 4.50269 48.917 4.62412 49.4173 4.9277C51.2515 6.08132 51.9185 9.72432 51.1403 14.946C50.9736 15.9781 50.7512 17.071 50.5289 18.2247C48.1945 17.6782 45.6933 17.2532 43.081 16.9496C41.5803 14.5817 39.9684 12.4566 38.3566 10.5744C41.6915 6.99207 45.0819 4.50269 47.8054 4.50269ZM39.6349 16.7067C38.6345 16.646 37.5784 16.646 36.5224 16.646C35.4663 16.646 34.4103 16.646 33.4098 16.7067C34.4103 15.2495 35.4663 13.9138 36.5224 12.6387C37.5784 13.9138 38.6345 15.3103 39.6349 16.7067ZM23.6831 4.9277C24.1277 4.62412 24.6835 4.50269 25.2949 4.50269C28.0184 4.50269 31.4089 6.93135 34.7438 10.5744C33.1319 12.4566 31.5756 14.5817 30.0193 16.9496C27.407 17.1925 24.9059 17.6175 22.5714 18.2247C22.2935 17.1318 22.1268 16.0389 21.96 14.946C21.1819 9.78504 21.7933 6.14204 23.6831 4.9277ZM20.7928 36.9254C14.5677 34.9825 10.8437 32.0074 10.8437 29.2751C10.8437 26.9072 13.4005 24.5392 17.9026 22.657C18.7919 22.2927 19.7924 21.9284 20.7928 21.6248C21.5154 24.1142 22.4047 26.6643 23.5163 29.2751C22.4047 31.8859 21.4598 34.4967 20.7928 36.9254ZM21.96 43.6042C22.1268 42.5721 22.3491 41.4792 22.5714 40.3255C24.9059 40.872 27.407 41.297 30.0193 41.6006C31.52 43.9686 33.1319 46.0936 34.7438 47.9759C31.4089 51.5581 28.0184 54.0475 25.2949 54.0475C24.6835 54.0475 24.1833 53.9261 23.6831 53.6225C21.7933 52.4689 21.1819 48.7652 21.96 43.6042ZM19.6256 68.6195C20.8484 66.9802 20.904 65.1587 20.237 63.3372C19.57 61.5157 18.1805 60.6656 16.4575 60.6049C14.401 60.5442 12.2889 60.6049 10.2323 60.6049H9.84328V76.3306H11.5107V70.3803H14.1231C14.4565 70.3803 14.7344 70.5018 14.9012 70.8053L18.2361 76.452C18.2917 76.5734 18.4584 76.7556 18.5696 76.7556H20.7372C19.4033 74.5091 18.1249 72.384 16.791 70.1982C17.9582 70.016 18.9586 69.591 19.6256 68.6195ZM11.5107 68.4981V62.4871H12.1221C13.4005 62.4871 14.7344 62.4264 16.0128 62.5479C17.5135 62.6086 18.5696 63.8836 18.5696 65.523C18.5696 67.1623 17.3468 68.4374 15.8461 68.4981C14.5121 68.5588 13.1782 68.4981 11.5107 68.4981ZM33.0207 69.2874C32.1314 65.0373 28.5742 63.9444 25.8507 65.2801C23.7386 66.3123 22.7938 68.3159 22.7382 70.8053C22.6826 72.6876 23.1828 74.3876 24.5168 75.6627C26.0175 77.1199 27.8517 77.302 29.7414 76.9377C30.7975 76.6949 31.7424 76.1484 32.4649 75.2984C32.187 74.8734 31.9091 74.4483 31.6312 74.084C30.0749 75.5412 28.3519 76.027 26.4621 75.0555C25.2393 74.3876 24.6279 72.7483 24.5168 71.5339H33.1319V70.7446C33.1875 70.1982 33.1319 69.7124 33.0207 69.2874ZM24.6279 70.2589C24.4612 68.4374 26.1286 66.4945 27.9628 66.4945C30.0749 66.4337 31.4089 67.8302 31.4645 70.2589H24.6279ZM41.6915 64.9765C40.8577 64.7944 39.9684 64.7337 39.1347 64.7944C37.8008 64.9158 36.6335 65.5837 35.6887 66.6766C35.9666 67.1016 36.1889 67.5266 36.5224 68.0124C36.6335 67.8909 36.7447 67.7695 36.8559 67.7088C37.7452 66.798 38.8012 66.3123 40.0796 66.4337C41.0801 66.4944 42.0249 66.8587 42.3029 67.9517C42.5252 68.8017 42.4696 69.7124 42.5252 70.6232C42.3584 70.6232 42.3029 70.5625 42.2473 70.5018C40.9133 69.2874 39.4126 69.0445 37.8008 69.4696C36.3001 69.8946 35.3552 71.1696 35.244 72.809C35.1328 74.6912 35.911 76.0877 37.4117 76.7556C38.3566 77.1806 39.4126 77.1806 40.4131 76.9377C41.1912 76.7556 41.5247 76.2698 42.6363 75.602V76.3913H44.1926C44.1926 73.9626 44.2482 70.9875 44.1926 68.1945C44.1926 66.4337 43.2477 65.3408 41.6915 64.9765ZM42.4696 72.6268C42.414 72.809 42.4696 72.9911 42.4696 73.1733C42.4696 74.4483 42.1917 74.8734 41.0801 75.3591C40.3019 75.6627 39.4682 75.7841 38.6345 75.4805C37.6896 75.1769 37.0226 74.2662 37.0226 73.234C36.967 72.2018 37.5784 71.1696 38.5233 70.8661C39.8017 70.3803 40.9689 70.6839 42.0249 71.5339C42.3584 71.8375 42.5808 72.1411 42.4696 72.6268ZM51.1403 66.6159C52.5854 66.1301 53.9194 66.4337 54.9198 67.7695L55.0866 67.8909C55.4757 67.5266 55.8092 67.1623 56.2538 66.7373C56.0871 66.5552 56.0315 66.4337 55.9203 66.2516C54.3085 64.3694 51.1403 64.1265 49.195 65.6444C46.4715 67.8302 46.5271 72.0804 47.861 74.3269C49.1394 76.452 50.9736 77.1806 53.1412 76.877C54.4196 76.6949 55.4757 76.027 56.3094 74.8734C55.9203 74.5091 55.5312 74.1448 55.1422 73.7197C55.031 73.8412 54.9754 73.9019 54.9198 74.0233C53.4191 75.8448 50.918 75.6627 49.584 73.7197C48.8059 72.5661 48.6391 71.2304 48.8615 69.8946C48.9726 68.3767 49.6952 67.1623 51.1403 66.6159ZM62.7013 74.8734C62.5901 74.9341 62.5345 74.9948 62.5345 74.9948C62.0899 75.3591 61.6452 75.4198 61.145 75.2377C60.6447 74.9948 60.5892 74.5091 60.5336 74.0233V67.1016C60.5336 66.9802 60.5336 67.2231 60.5892 66.6159H62.7013V64.7944H60.478V61.7585H58.8106V65.0373H57.3654C57.2543 65.0373 57.0875 65.1587 57.0875 65.2801C57.0319 65.7051 57.0875 66.0087 57.0875 66.6159H58.8661V74.3876C58.8661 75.3591 59.0885 76.2091 59.8666 76.6949C60.7003 77.2413 62.3122 77.1199 63.0347 76.452C63.1459 76.3913 63.2015 76.1484 63.2015 76.0877C63.0347 75.7234 62.868 75.2984 62.7013 74.8734Z" fill="#333A72"/>
</svg>
