<svg width="62" height="71" viewBox="0 0 62 71" fill="none" xmlns="http://www.w3.org/2000/svg">
<path fill-rule="evenodd" clip-rule="evenodd" d="M0.970673 31.1065C0.970673 31.4885 1.07019 31.7407 1.12596 31.9858C1.48942 33.5799 2.27067 34.9478 3.1976 36.1956C4.51779 37.9739 6.13461 39.4054 7.79086 40.7516C9.2274 41.919 10.6933 43.0603 12.1356 44.219C12.3832 44.4179 12.6173 44.6467 12.8861 44.8907C12.6548 45.032 12.4625 45.1565 12.2625 45.2712C10.3591 46.3625 8.52788 47.5858 6.8399 49.0679C5.8226 49.9614 4.83894 50.9108 4.14423 52.1516C3.02644 54.1472 2.63077 56.2733 3.46394 58.5434C3.70721 59.2065 4.07836 59.7793 4.60192 60.2027C4.77163 60.3396 4.96202 60.4755 5.16058 60.5288C5.66923 60.6641 6.1875 60.7527 6.7024 60.8597L8.16058 60.8587C9.77308 60.6962 11.2409 60.0717 12.5673 59.0369C14.6404 57.4195 16.037 55.251 16.6375 52.4679C17.074 50.4451 17.0918 48.4201 16.5774 46.4065C16.5282 46.2199 16.4714 46.036 16.4072 45.8554C16.3447 45.6744 16.2712 45.4983 16.1846 45.2728L19.4904 43.1239L19.5399 43.1717C19.4798 43.394 19.4159 43.6157 19.3615 43.8402C18.9687 45.4619 18.7077 47.1119 18.8014 48.7951C18.9014 50.5885 19.3442 52.2673 20.2731 53.7657C21.024 54.9777 22.8135 55.0228 23.6115 53.8065C23.8947 53.3744 24.1692 52.9228 24.3755 52.4407C24.9144 51.1826 25.4135 49.9021 25.9284 48.6304L26.0183 48.3978C25.9812 49 25.938 49.5288 25.9183 50.0581C25.8875 50.8847 25.9303 51.7065 26.1803 52.4929C26.3942 53.1657 26.7582 53.6684 27.4399 53.757C27.9062 53.8173 28.2779 53.576 28.6207 53.2701C29.1517 52.7957 29.5919 52.2042 29.9144 51.5315C30.8284 49.6342 31.7668 47.7483 32.5952 45.8032C33.4913 43.6994 34.275 41.5342 35.1072 39.3945L35.2447 39.0152C35.4413 39.8885 35.5784 40.744 35.8308 41.5538C36.124 42.4934 36.487 43.4108 36.8822 44.3027C37.0692 44.7239 37.0476 44.9972 36.7885 45.3505C35.7038 46.8288 34.638 48.325 33.5711 49.8195C33.3351 50.1494 33.1 50.4853 32.9034 50.8456C32.7841 51.0732 32.7056 51.3251 32.6726 51.5869C32.6395 51.828 32.6903 52.0742 32.8142 52.2739C32.9382 52.4736 33.1257 52.6113 33.3375 52.6581C33.7649 52.7622 34.2032 52.7975 34.6394 52.763C36.1284 52.6391 37.4803 52.0483 38.6755 51.0472C40.224 49.7505 40.7212 47.9809 40.3462 45.8837C40.2447 45.3146 40.0654 44.7614 39.8909 44.213C39.8125 43.9657 39.8072 43.7923 39.95 43.5619C41.188 41.5635 42.2457 39.4434 43.2293 37.2744C43.2683 37.1891 43.3082 37.1038 43.3764 37.0125C43.6952 38.8875 44.175 40.6945 45.0346 42.3342C44.5961 42.8119 44.162 43.2451 43.7692 43.7222C42.9043 44.7733 42.1543 45.9146 41.763 47.3065C41.5947 47.9065 41.4654 48.5163 41.5404 49.157C41.6567 50.1521 42.3779 50.7989 43.2437 50.5722C45.0966 50.0875 46.6961 49.1005 47.8649 47.3521C48.6514 46.175 48.7231 44.8619 48.3937 43.4864C48.3034 43.1125 48.1961 42.7445 48.0808 42.3157C48.538 42.1554 48.9836 41.963 49.4447 41.844C51.8385 41.2266 54.2062 41.3342 56.513 42.3114C57.8596 42.882 58.9476 43.8369 59.5928 45.3391C60.3808 47.1755 59.9452 48.9179 58.4139 50.0788C58.2711 50.1869 58.1077 50.2722 57.9894 50.4076C57.9515 50.4572 57.9232 50.5152 57.9062 50.5779C57.8893 50.6406 57.884 50.7066 57.8909 50.7717C57.901 50.8385 58.0572 50.9222 58.1471 50.9212C58.6505 50.9168 59.0586 50.6184 59.4505 50.3119C60.4322 49.544 61.1486 48.5108 61.3029 47.1505L61.3332 47.0483L61.2961 46.1625C61.2812 46.1114 61.3072 46.0608 61.3038 46.0222C61.0952 44.0413 60.1591 42.5049 58.7976 41.3005C57.2207 39.9065 55.3586 39.3326 53.3894 39.2418C51.7923 39.1641 50.1972 39.4416 48.6947 40.0587C48.2635 40.2353 47.8361 40.4445 47.4024 40.6418C47.3442 40.5228 47.2817 40.4087 47.2303 40.2907C46.7851 39.2603 46.2457 38.2755 46.1264 37.094C46.0418 36.2548 45.938 35.4168 46.1144 34.5869C46.2841 33.7885 46.5053 33.0038 46.7135 32.2163C46.8207 31.8108 46.7452 31.5837 46.4029 31.401C46.2836 31.3338 46.1563 31.2866 46.025 31.2608C45.1836 31.1228 44.3538 31.2016 43.5389 31.4695C43.2505 31.5646 43.0409 31.7472 42.9769 32.1081C42.9404 32.3152 42.8659 32.5135 42.8139 32.7179C42.601 33.5674 42.45 34.4331 42.1058 35.2424C41.2433 37.2722 40.2587 39.2255 39.251 41.1646C39.1418 41.3739 39.0269 41.5793 38.8894 41.8331C38.5356 40.9962 38.1582 40.2451 38.0437 39.3646C37.9144 38.369 37.8125 37.375 38.0317 36.3869C38.1947 35.65 38.4077 34.9266 38.6038 34.1994C38.6966 33.8538 38.6538 33.6722 38.3769 33.4902C38.237 33.3983 38.0788 33.3168 37.9211 33.2902C37.0585 33.1416 36.177 33.2231 35.3471 33.5282C35.0861 33.6239 34.949 33.8146 34.8692 34.119C34.6346 35.0168 34.4346 35.9364 34.1053 36.7902C32.7716 40.2467 31.3995 43.6853 30.0288 47.1233C29.7428 47.8413 29.4077 48.5342 29.0851 49.2331C29.0034 49.4103 28.8841 49.5663 28.7822 49.7326C28.7005 49.6233 28.6687 49.5483 28.6692 49.4733C28.6716 49.0315 28.625 48.5766 28.6995 48.1494C28.9283 46.8575 29.1813 45.5711 29.4582 44.2913C29.6841 43.2337 29.9471 42.1858 30.1976 41.1353C30.2817 40.7837 30.2832 40.4549 30.0596 40.1592C29.6841 39.6641 28.8995 39.5554 28.4341 39.9369L28.2284 40.0684L28.2683 39.6934C28.3663 38.8896 28.3861 38.0885 28.1909 37.2967C27.9476 36.3097 27.3245 35.7418 26.4187 35.7733C25.9966 35.788 25.5534 35.8695 25.1625 36.0434C23.5187 36.7717 22.2548 38.0614 21.1788 39.613C21.0791 39.7571 20.9555 39.8778 20.8149 39.9684C19.424 40.8402 18.0288 41.701 16.6341 42.5652L15.0817 43.5266C14.6654 43.0777 14.287 42.6119 13.8577 42.2168C12.5466 41.0081 11.2144 39.8293 9.89423 38.6342C8.72404 37.575 7.59038 36.4717 6.72308 35.069C6.07788 34.0255 5.66202 32.8837 5.62211 31.5934C5.57163 29.9494 5.98413 28.4472 6.72452 27.0489C7.67163 25.2597 8.96346 23.8239 10.3837 22.5233C11.8861 21.1483 13.5111 19.9809 15.1952 18.9152C17.5514 17.4244 19.975 16.1049 22.5736 15.2337C25.238 14.3402 27.9413 13.8288 30.7298 14.1853C31.826 14.3255 32.8904 14.6092 33.8678 15.2152C34.6163 15.6788 35.2303 16.2858 35.5159 17.2347C35.7976 18.1684 35.7889 19.1146 35.5937 20.063C35.1971 21.9837 34.2668 23.5668 33.0962 24.9815C31.176 27.3005 28.8336 28.8793 26.1966 29.9222C24.6804 30.5227 23.1029 30.9031 21.5019 31.0543C20.1899 31.1788 18.9053 31.0472 17.663 30.5315C16.8404 30.1896 16.124 29.6668 15.5481 28.9081C15.4452 28.7722 15.3135 28.625 15.1216 28.7521C14.9337 28.8771 14.9005 29.0793 14.9635 29.2842C15.0687 29.6244 15.1659 29.9788 15.3298 30.2831C15.7418 31.0467 16.3428 31.6005 17.0043 32.0755C18.275 32.9891 19.6952 33.2962 21.1678 33.3674C23.4024 33.4766 25.5827 33.0994 27.7322 32.4217C30.801 31.4543 33.4692 29.7456 35.6091 27.05C37.3909 24.8054 38.6635 22.2722 38.9361 19.2135C39.0692 17.7206 38.9274 16.2581 38.3091 14.8962C37.6385 13.4206 36.5721 12.3233 35.2971 11.5674C33.4404 10.4668 31.4365 9.82605 29.3683 9.82605H27.2962C24.7913 9.82605 22.3697 10.6375 20.0159 11.6054C18.2341 12.3385 16.487 13.2038 14.7909 14.1614C11.0971 16.2478 7.65721 18.7635 4.83173 22.2228C3.42404 23.9462 2.23221 25.8478 1.54663 28.0869C1.33971 28.7554 1.16146 29.4348 1.0125 30.1228M14.3966 49.6951C14.2365 52.1184 13.2649 54.0831 11.6769 55.6744C10.7837 56.569 9.75913 57.2059 8.56586 57.4298C8.13317 57.5108 7.69038 57.5304 7.27067 57.3277C6.67211 57.0385 6.53798 56.438 6.52644 55.7983C6.50865 54.7788 6.82452 53.857 7.25769 52.9798C7.82308 51.8364 8.65192 50.9646 9.53702 50.1505C10.9312 48.8673 12.4437 47.7815 13.9928 46.7565L14.1096 46.7021C14.349 47.7021 14.463 48.6896 14.3966 49.6951V49.6951ZM26.4918 39.163C26.3788 39.9369 26.2375 40.7114 26.0375 41.4614C25.3462 44.0576 24.4582 46.5733 23.4981 49.0554C23.3207 49.5146 23.0625 49.9337 22.838 50.369C22.7998 50.4359 22.754 50.4969 22.7019 50.5505C22.424 50.8608 22.1606 50.8445 22.0202 50.4385C21.8567 49.9668 21.7562 49.4619 21.6697 48.9625C21.6115 48.6271 21.6255 48.275 21.6072 47.9315C21.626 45.4891 22.2851 43.2695 23.4034 41.2032C23.8644 40.351 24.3663 39.5391 25.1332 39C25.3717 38.8323 25.6298 38.7031 25.9 38.6163C26.3086 38.4864 26.5596 38.7 26.4918 39.163V39.163ZM34.7437 51.0478L37.7096 47.1331C37.8332 48.5869 35.6471 51.4891 34.7437 51.0478ZM44.2163 48.4135C44.0067 48.5494 43.7784 48.6472 43.5635 48.7728C43.3668 48.888 43.3019 48.7717 43.2961 48.5804C43.2933 48.448 43.3083 48.3158 43.3409 48.1885C43.7413 46.5918 44.4784 45.2288 45.575 44.1201L45.6519 44.0755C46.1736 45.725 45.5707 47.5364 44.2163 48.4135Z" fill="#333A72"/>
</svg>
