<svg width="61" height="61" viewBox="0 0 61 61" fill="none" xmlns="http://www.w3.org/2000/svg">
<path d="M1.74231 21.4658C1.74231 21.4658 0.29976 20.4216 2.03302 19.0291L6.06855 15.4101C6.06855 15.4101 7.22469 14.1906 8.44612 15.2538L45.7014 43.5273V57.0855C45.7014 57.0855 45.6828 59.2147 42.9578 58.9803L1.74231 21.4658Z" fill="#333A72"/>
<path d="M11.3465 30.2041L1.7423 38.9552C1.7423 38.9552 0.755817 39.6906 1.7423 41.0068L6.20102 45.0705C6.20102 45.0705 7.25994 46.2118 8.82593 44.9142L19.0048 37.1757L11.3465 30.2041Z" fill="#333A72"/>
<path d="M28.2049 30.2764L45.8153 16.7969L45.7014 3.31158C45.7014 3.31158 44.9494 0.368329 42.4403 1.90143L19.0048 23.2805L28.2049 30.2764Z" fill="#333A72"/>
<path d="M42.9573 58.997C43.9796 60.0469 45.2196 59.7023 45.2196 59.7023L58.9432 52.9246C60.7002 51.7237 60.4543 50.2344 60.4543 50.2344V9.75284C60.4543 7.97288 58.6377 7.35859 58.6377 7.35859L46.7422 1.61077C44.1435 0.000461563 42.4403 1.90147 42.4403 1.90147C42.4403 1.90147 44.6291 0.320712 45.7014 3.31209V56.8382C45.7014 57.2065 45.6232 57.5673 45.4669 57.8933C45.1543 58.5281 44.4728 59.118 42.8439 58.8707L42.9573 58.997Z" fill="#333A72"/>
</svg>
